<?xml version="1.0" encoding="utf-8"?>
<!-- Generator: Adobe Illustrator 25.4.1, SVG Export Plug-In . SVG Version: 6.00 Build 0)  -->
<svg version="1.1" id="Layer_2_00000121259377348877678510000008452896274721939091_"
	 xmlns="http://www.w3.org/2000/svg" xmlns:xlink="http://www.w3.org/1999/xlink" x="0px" y="0px" viewBox="0 0 24 24"
	 style="enable-background:new 0 0 24 24;" xml:space="preserve">
<style type="text/css">
	.st0{fill:#959FA3;}
	.st1{fill:#27BA70;}
	.st2{fill:none;}
	.st3{fill:none;stroke:#0C2316;stroke-linecap:round;stroke-linejoin:round;stroke-miterlimit:10;}
</style>
<path class="st0" d="M-4238.6-3148.6"/>
<g>
	<g>
		<path class="st1" d="M10.6,16.5h-3c-0.3,0-0.5-0.2-0.5-0.5s0.2-0.5,0.5-0.5h3c0.3,0,0.5,0.2,0.5,0.5
			C11.1,16.3,10.9,16.5,10.6,16.5z"/>
	</g>
	<g>
		<path class="st1" d="M16.3,9.5h-0.1c-0.3-0.1-0.4-0.3-0.4-0.6c0-0.1,0-0.3,0-0.4c0-1.6-1.3-2.9-2.9-2.9S10,6.9,10,8.5
			c0,0.2,0,0.3,0,0.4c0.1,0.3-0.1,0.5-0.4,0.6C9.5,9.6,9.2,9.4,9.2,9.2S9.1,8.8,9.1,8.5c0-2.2,1.7-3.9,3.9-3.9s3.9,1.7,3.9,3.9
			c0,0.3,0,0.5-0.1,0.7C16.8,9.4,16.6,9.5,16.3,9.5z"/>
	</g>
	<g>
		<path class="st1" d="M10.6,18.5h-3c-0.3,0-0.5-0.2-0.5-0.5s0.2-0.5,0.5-0.5h3c0.3,0,0.5,0.2,0.5,0.5S10.9,18.5,10.6,18.5z"/>
	</g>
	<rect x="0.5" y="0.5" class="st2" width="23" height="23"/>
	<g>
		<g>
			<path class="st3" d="M18.5,19.9h-13c-0.8,0-1.4-0.6-1.4-1.4V9.4C4.1,8.7,4.7,8,5.5,8h13.1C19.4,8,20,8.6,20,9.4v9.1
				C19.9,19.3,19.3,19.9,18.5,19.9z"/>
			<path class="st3" d="M15.3,8c0-0.2,0.1-0.4,0.1-0.6C15.4,5.5,13.9,4,12,4S8.6,5.6,8.6,7.5c0,0.2,0,0.4,0.1,0.6"/>
		</g>
		<line class="st3" x1="6.6" y1="17" x2="9.6" y2="17"/>
		<line class="st3" x1="6.6" y1="15" x2="9.6" y2="15"/>
	</g>
</g>
</svg>
