<?xml version="1.0" encoding="utf-8"?>
<!-- Generator: Adobe Illustrator 25.4.1, SVG Export Plug-In . SVG Version: 6.00 Build 0)  -->
<svg version="1.1" id="Layer_2_00000180346114830291115640000006544992661636927656_"
	 xmlns="http://www.w3.org/2000/svg" xmlns:xlink="http://www.w3.org/1999/xlink" x="0px" y="0px" viewBox="0 0 24 24"
	 style="enable-background:new 0 0 24 24;" xml:space="preserve">
<style type="text/css">
	.st0{fill:#959FA3;}
	.st1{fill:#27BA70;}
	.st2{fill:none;}
	.st3{fill:none;stroke:#0C2316;stroke-linecap:round;stroke-linejoin:round;stroke-miterlimit:10;}
</style>
<path class="st0" d="M-4238.6-3148.6"/>
<g>
	<g>
		<path class="st1" d="M19.8,19.2H2.2c-0.3,0-0.5-0.2-0.5-0.5v-5.2c0-1.5,1.2-2.8,2.8-2.8h13.1c1.5,0,2.8,1.2,2.8,2.8v5.2
			C20.3,19,20.1,19.2,19.8,19.2z M2.7,18.2h16.7v-4.7c0-1-0.8-1.8-1.8-1.8H4.5c-1,0-1.8,0.8-1.8,1.8V18.2z"/>
	</g>
	<g>
		<rect x="0.5" y="0.5" class="st2" width="23" height="23"/>
		<g>
			<path class="st3" d="M20.8,17.7H3.2v-5.2c0-1.3,1-2.3,2.3-2.3h13.1c1.3,0,2.3,1,2.3,2.3v5.2H20.8z"/>
			<line class="st3" x1="4.7" y1="17.8" x2="4.7" y2="19.4"/>
			<line class="st3" x1="19.4" y1="17.8" x2="19.4" y2="19.4"/>
			<g>
				<path class="st3" d="M4.7,9.8V5.7c0-0.9,1-1.6,2.3-0.5h9.4c1.3-1.1,2.3-0.4,2.3,0.5v4.2"/>
			</g>
			<line class="st3" x1="3.7" y1="15.2" x2="5.7" y2="15.2"/>
			<line class="st3" x1="18.7" y1="15.2" x2="20.7" y2="15.2"/>
			<line class="st3" x1="11.7" y1="10.2" x2="11.7" y2="8.2"/>
		</g>
	</g>
</g>
</svg>
