<?xml version="1.0" encoding="utf-8"?>
<!-- Generator: Adobe Illustrator 25.4.1, SVG Export Plug-In . SVG Version: 6.00 Build 0)  -->
<svg version="1.1" id="Layer_2_00000073703483883291022870000003586044942269356711_"
	 xmlns="http://www.w3.org/2000/svg" xmlns:xlink="http://www.w3.org/1999/xlink" x="0px" y="0px" viewBox="0 0 24 24"
	 style="enable-background:new 0 0 24 24;" xml:space="preserve">
<style type="text/css">
	.st0{fill:#959FA3;}
	.st1{fill:#27BA70;}
	.st2{fill:none;}
	.st3{fill:none;stroke:#0C2316;stroke-linecap:round;stroke-linejoin:round;stroke-miterlimit:10;}
</style>
<path class="st0" d="M-4238.6-3148.6"/>
<g>
	<g>
		<path class="st1" d="M11.3,16.6c-0.1,0-0.3-0.1-0.4-0.2c-0.2-0.2-0.2-0.5,0-0.7l3.2-3.1h-3.6c-0.2,0-0.4-0.1-0.5-0.3
			s0-0.4,0.1-0.5l3.7-3.9c0.2-0.2,0.5-0.2,0.7,0c0.2,0.2,0.2,0.5,0,0.7l-2.9,3h3.7c0.2,0,0.4,0.1,0.5,0.3s0,0.4-0.1,0.5l-4.1,4
			C11.6,16.5,11.4,16.6,11.3,16.6z"/>
	</g>
	<g>
		<rect x="0.5" y="0.5" class="st2" width="23" height="23"/>
		<path class="st3" d="M17.6,4.9l2.4,4l1.2,1.1c0.5,0.5,0.8,1.2,0.8,1.9v6.6c0,0.8-0.7,1.5-1.5,1.5l0,0c-0.8,0-1.5-0.7-1.5-1.5v-1.3
			H5v1.3C5,19.3,4.3,20,3.5,20l0,0C2.7,20,2,19.3,2,18.5V12c0-0.7,0.3-1.4,0.8-1.9L4,8.9l2.4-4c0.4-0.6,1-1,1.7-1h7.7
			C16.6,3.9,17.2,4.3,17.6,4.9z"/>
		<polyline class="st3" points="13.3,7.2 9.6,11.1 14.4,11.1 10.3,15.1 		"/>
	</g>
</g>
</svg>
