<?xml version="1.0" encoding="utf-8"?>
<!-- Generator: Adobe Illustrator 25.4.1, SVG Export Plug-In . SVG Version: 6.00 Build 0)  -->
<svg version="1.1" id="Layer_2" xmlns="http://www.w3.org/2000/svg" xmlns:xlink="http://www.w3.org/1999/xlink" x="0px" y="0px"
	 viewBox="0 0 24 24" style="enable-background:new 0 0 24 24;" xml:space="preserve">
<style type="text/css">
	.st0{fill:#959FA3;}
	.st1{fill:#27BA70;}
	.st2{fill:none;stroke:#0C2316;stroke-linecap:round;stroke-linejoin:round;stroke-miterlimit:10;}
</style>
<path class="st0" d="M-4238.57-3148.56"/>
<g>
	<g>
		<path class="st1" d="M19.68,15.98H4.23c-0.98,0-1.78-0.8-1.78-1.78v-1.91c0-0.98,0.8-1.78,1.78-1.78h15.44
			c0.98,0,1.78,0.8,1.78,1.78v1.91C21.45,15.19,20.66,15.98,19.68,15.98z M4.23,11.52c-0.43,0-0.78,0.35-0.78,0.78v1.91
			c0,0.43,0.35,0.78,0.78,0.78h15.44c0.43,0,0.78-0.35,0.78-0.78v-1.91c0-0.43-0.35-0.78-0.78-0.78H4.23z"/>
	</g>
	<g>
		<path class="st1" d="M13.47,18.63c-0.98,0-1.85-0.42-2.32-0.79c-0.07-0.05-1.73-1.27-3.39,0C7,18.42,6.27,18.64,5.57,18.48
			c-1.04-0.24-1.54-1.23-1.56-1.27c-0.12-0.25-0.02-0.55,0.22-0.67c0.25-0.12,0.55-0.02,0.67,0.22l0,0c0,0.01,0.32,0.62,0.9,0.75
			c0.39,0.09,0.85-0.07,1.35-0.45c1.82-1.4,3.81-0.61,4.61,0c0.07,0.05,1.71,1.27,3.2,0.01c1.48-1.23,3.36-0.6,4.64,0.4
			c0.22,0.17,0.26,0.48,0.09,0.7c-0.17,0.22-0.48,0.26-0.7,0.09c-0.47-0.37-2.1-1.48-3.38-0.42C14.91,18.42,14.16,18.63,13.47,18.63
			z"/>
	</g>
	<g>
		<path class="st2" d="M14.27,3.23h-3.45c-3.23,0-5.85,2.62-5.85,5.85v0.69h15.16V9.08C20.13,5.85,17.51,3.23,14.27,3.23z"/>
		<path class="st2" d="M10.82,20.77h3.45c3.23,0,5.85-2.62,5.85-5.85v-0.69H4.97v0.69C4.97,18.15,7.59,20.77,10.82,20.77z"/>
		<path class="st2" d="M20.27,9.76H4.82c-0.71,0-1.28,0.57-1.28,1.28v1.91c0,0.71,0.57,1.28,1.28,1.28h15.44
			c0.71,0,1.28-0.57,1.28-1.28v-1.91C21.55,10.33,20.97,9.76,20.27,9.76z"/>
		<polyline class="st2" points="11.94,9.83 15.94,12.83 20.05,9.73 		"/>
		<path class="st2" d="M5.05,15.73c0,0,1,2,3,0.46c2-1.53,4,0,4,0s2,1.54,3.83,0c1.55-1.29,3.46-0.02,4.01,0.41"/>
	</g>
</g>
</svg>
