<?xml version="1.0" encoding="utf-8"?>
<!-- Generator: Adobe Illustrator 25.4.1, SVG Export Plug-In . SVG Version: 6.00 Build 0)  -->
<svg version="1.1" id="Layer_2_00000107566847890318396130000010310556556420687292_"
	 xmlns="http://www.w3.org/2000/svg" xmlns:xlink="http://www.w3.org/1999/xlink" x="0px" y="0px" viewBox="0 0 24 24"
	 style="enable-background:new 0 0 24 24;" xml:space="preserve">
<style type="text/css">
	.st0{fill:#959FA3;}
	.st1{fill:#27BA70;}
	.st2{fill:none;}
	.st3{fill:none;stroke:#0C2316;stroke-miterlimit:10;}
	.st4{fill:none;stroke:#0C2316;stroke-linecap:round;stroke-linejoin:round;stroke-miterlimit:10;}
</style>
<path class="st0" d="M-4238.6-3148.6"/>
<g>
	<g>
		<path class="st1" d="M13,22.9l-0.3-0.2C3,16.5,3.2,11.5,3.3,10.9c0-3.2,2.6-5.8,5.9-5.8c1.5,0,2.8,0.5,3.9,1.5
			c1.1-1,2.5-1.5,3.9-1.5c3.2,0,5.9,2.6,5.9,5.9c0,0.1,0.7,5.3-9.5,11.8L13,22.9z M4.3,11c0,0.1-0.5,4.8,8.8,10.7
			c9.3-6,8.8-10.6,8.8-10.7c0-2.7-2.2-4.9-4.9-4.9c-1.4,0-2.6,0.6-3.5,1.6L13,8.1l-0.4-0.4c-0.9-1-2.2-1.6-3.5-1.6
			C6.4,6.1,4.3,8.3,4.3,11L4.3,11z"/>
	</g>
	<rect x="0.5" y="0.5" class="st2" width="23" height="23"/>
	<g>
		<path class="st3" d="M2.7,9.5c0-3,2.4-5.4,5.4-5.4c1.6,0,2.9,0.7,3.9,1.7c1-1.1,2.4-1.7,3.9-1.7c3,0,5.4,2.4,5.4,5.4
			c0,0,0.8,5-9.3,11.3C2,14.6,2.7,9.5,2.7,9.5z"/>
		<polyline class="st4" points="13.3,8.7 9.6,12.5 14.4,12.5 10.3,16.5 		"/>
	</g>
</g>
</svg>
