<?xml version="1.0" encoding="utf-8"?>
<!-- Generator: Adobe Illustrator 25.4.1, SVG Export Plug-In . SVG Version: 6.00 Build 0)  -->
<svg version="1.1" id="Layer_2_00000047053072735756915780000005648718837967024054_"
	 xmlns="http://www.w3.org/2000/svg" xmlns:xlink="http://www.w3.org/1999/xlink" x="0px" y="0px" viewBox="0 0 24 24"
	 style="enable-background:new 0 0 24 24;" xml:space="preserve">
<style type="text/css">
	.st0{fill:#959FA3;}
	.st1{fill:#27BA70;}
	.st2{fill:none;}
	.st3{fill:none;stroke:#0C2316;stroke-miterlimit:10;}
	.st4{fill:none;stroke:#0C2316;stroke-linecap:round;stroke-linejoin:round;stroke-miterlimit:10;}
</style>
<path class="st0" d="M-4238.6-3148.6"/>
<g>
	<g>
		<path class="st1" d="M11,22.6c-5.4,0-9.8-4.4-9.8-9.8S5.6,3.1,11,3.1s9.8,4.4,9.8,9.8S16.4,22.6,11,22.6z M11,4.1
			c-4.8,0-8.8,3.9-8.8,8.8s3.9,8.8,8.8,8.8s8.8-3.9,8.8-8.8S15.8,4.1,11,4.1z"/>
	</g>
	<rect x="0.5" y="0.5" class="st2" width="23" height="23"/>
	<g>
		<circle class="st3" cx="12" cy="11.9" r="9.3"/>
		<g>
			<path class="st4" d="M12,11.9c-1.7,0-3-1.1-3-2.4S10.3,7,12,7s3,1.1,3,2.4"/>
			<path class="st4" d="M12,11.9c1.7,0,3,1.1,3,2.4s-1.3,2.4-3,2.4c-1,0-1.9-0.4-2.4-1C9.2,15.4,9,14.9,9,14.3"/>
			<line class="st4" x1="12" y1="6.1" x2="12" y2="17.7"/>
		</g>
	</g>
</g>
</svg>
