<?xml version="1.0" encoding="utf-8"?>
<!-- Generator: Adobe Illustrator 25.4.1, SVG Export Plug-In . SVG Version: 6.00 Build 0)  -->
<svg version="1.1" id="Layer_2_00000013884003110265337550000017366302903974094526_"
	 xmlns="http://www.w3.org/2000/svg" xmlns:xlink="http://www.w3.org/1999/xlink" x="0px" y="0px" viewBox="0 0 24 24"
	 style="enable-background:new 0 0 24 24;" xml:space="preserve">
<style type="text/css">
	.st0{fill:#959FA3;}
	.st1{fill:#27BA70;}
	.st2{fill:none;}
	.st3{fill:none;stroke:#0C2316;stroke-linecap:round;stroke-linejoin:round;stroke-miterlimit:10;}
	.st4{fill:none;stroke:#000000;stroke-linecap:round;stroke-linejoin:round;stroke-miterlimit:10;}
</style>
<path class="st0" d="M-4238.6-3148.6"/>
<g>
	<g>
		<g>
			<path class="st1" d="M5,12.6H2.7c-0.3,0-0.5-0.2-0.5-0.5s0.2-0.5,0.5-0.5H5c0.3,0,0.5,0.2,0.5,0.5C5.5,12.4,5.2,12.6,5,12.6z"/>
		</g>
		<g>
			<path class="st1" d="M5.8,10.1c-0.1,0-0.1,0-0.2,0l-2-1C3.3,8.9,3.2,8.6,3.4,8.4C3.5,8.1,3.8,8,4,8.1l2,1
				c0.2,0.1,0.4,0.4,0.2,0.7C6.2,10,6,10.1,5.8,10.1z"/>
		</g>
		<g>
			<path class="st1" d="M3.8,16.1c-0.2,0-0.4-0.1-0.5-0.3s0-0.5,0.2-0.7l2-1c0.2-0.1,0.5,0,0.7,0.2c0.1,0.2,0,0.5-0.2,0.7l-2,1
				C4,16,3.9,16.1,3.8,16.1z"/>
		</g>
		<g>
			<path class="st1" d="M11.3,16.6c-0.3,0-0.5-0.2-0.5-0.5v-8c0-0.3,0.2-0.5,0.5-0.5s0.5,0.2,0.5,0.5v8
				C11.8,16.4,11.6,16.6,11.3,16.6z"/>
		</g>
		<rect x="0.5" y="0.5" class="st2" width="23" height="23"/>
		<g>
			<g>
				<g>
					<polygon class="st3" points="17.6,13.8 6.6,16.8 6.6,5.8 17.6,8.8 					"/>
					<line class="st3" x1="10.6" y1="7.1" x2="10.6" y2="15.1"/>
					<line class="st3" x1="8.6" y1="8.1" x2="8.6" y2="7.1"/>
					<line class="st3" x1="8.6" y1="15.1" x2="8.6" y2="16.1"/>
					<g>
						<line class="st3" x1="1.7" y1="11.1" x2="4" y2="11.1"/>
						<line class="st3" x1="2.8" y1="7.6" x2="4.8" y2="8.6"/>
						<line class="st3" x1="2.8" y1="14.6" x2="4.8" y2="13.6"/>
					</g>
				</g>
				<path class="st3" d="M19.6,9.3v4l2.1-1.1c0.8-0.4,0.8-1.5,0-1.9L19.6,9.3z"/>
			</g>
			<line class="st4" x1="17.6" y1="13.8" x2="17.6" y2="18.6"/>
		</g>
	</g>
	<line class="st3" x1="1.7" y1="11.1" x2="4" y2="11.1"/>
	<line class="st3" x1="2.8" y1="7.6" x2="4.8" y2="8.6"/>
	<line class="st3" x1="2.8" y1="14.6" x2="4.8" y2="13.6"/>
</g>
</svg>
