<?xml version="1.0" encoding="utf-8"?>
<!-- Generator: Adobe Illustrator 25.4.1, SVG Export Plug-In . SVG Version: 6.00 Build 0)  -->
<svg version="1.1" id="Layer_2_00000064327575009205584950000015655911072299813773_"
	 xmlns="http://www.w3.org/2000/svg" xmlns:xlink="http://www.w3.org/1999/xlink" x="0px" y="0px" viewBox="0 0 24 24"
	 style="enable-background:new 0 0 24 24;" xml:space="preserve">
<style type="text/css">
	.st0{fill:#959FA3;}
	.st1{fill:#27BA70;}
	.st2{fill:none;}
	.st3{fill:none;stroke:#0C2316;stroke-linecap:round;stroke-miterlimit:10;}
	.st4{fill:none;stroke:#0C2316;stroke-linecap:round;stroke-linejoin:round;stroke-miterlimit:10;}
	.st5{fill:none;stroke:#0C2316;stroke-width:1;stroke-linecap:round;stroke-linejoin:round;stroke-miterlimit:10.0005;}
</style>
<path class="st0" d="M-4238.6-3148.6"/>
<g>
	<g>
		<g>
			<path class="st1" d="M8.1,22.3c-0.3,0-0.6,0-0.9-0.1c-1.4-0.3-2.4-1-2.4-1c-0.1-0.1-0.2-0.2-0.2-0.4s0-0.3,0.1-0.4
				c0,0,0.8-0.8,2.8-3.5c0.4-0.6,1.1-1,1.8-1.1s1.5,0.1,2,0.5c0.6,0.4,1,1.1,1.1,1.8c0.1,0.7-0.1,1.5-0.5,2l0,0
				C10.7,21.9,9.3,22.3,8.1,22.3z M5.8,20.7c1,0.5,3.4,1.5,5.3-1l0,0c0.3-0.4,0.4-0.8,0.3-1.3c-0.1-0.5-0.3-0.9-0.7-1.1
				c-0.8-0.6-1.9-0.4-2.5,0.4C7,19.2,6.3,20.2,5.8,20.7z M11.5,20L11.5,20L11.5,20z"/>
		</g>
	</g>
	<g>
		<path class="st1" d="M9.6,19.1c-0.1,0-0.2,0-0.3-0.1c-0.2-0.2-0.3-0.5-0.1-0.7l1.3-1.8c0.2-0.2,0.5-0.3,0.7-0.1
			c0.2,0.2,0.3,0.5,0.1,0.7L10,18.9C9.9,19,9.8,19.1,9.6,19.1z"/>
	</g>
	<rect x="0.5" y="0.5" class="st2" width="23" height="23"/>
	<g>
		<path class="st3" d="M11.2,11.1l2.8,2.1l5.2-5.6c1.1-1.1,0.9-3-0.4-3.9l0,0c-1.3-0.9-3-0.6-3.8,0.8L11.2,11.1z"/>
		<g>
			<path class="st4" d="M10.5,19c0.7-1,0.5-2.4-0.5-3.1c-1-0.7-2.4-0.5-3.1,0.5c-2,2.7-2.8,3.5-2.8,3.5S7.8,22.6,10.5,19"/>
		</g>
		<g>
			
				<rect x="9.5" y="12.6" transform="matrix(0.5943 -0.8043 0.8043 0.5943 -7.6369 14.5944)" class="st5" width="2.3" height="4.5"/>
			<line class="st3" x1="10" y1="15.8" x2="8.6" y2="17.6"/>
		</g>
	</g>
</g>
</svg>
