<?xml version="1.0" encoding="utf-8"?>
<!-- Generator: Adobe Illustrator 25.4.1, SVG Export Plug-In . SVG Version: 6.00 Build 0)  -->
<svg version="1.1" id="Layer_1" xmlns="http://www.w3.org/2000/svg" xmlns:xlink="http://www.w3.org/1999/xlink" x="0px" y="0px"
	 viewBox="0 0 739 238" style="enable-background:new 0 0 739 238;" xml:space="preserve">
<style type="text/css">
	.st0{font-family:'TitilliumWeb-Regular';}
	.st1{font-size:98.5772px;}
	.st2{font-size:70.5997px;}
</style>
<g id="layer1" transform="translate(0,-260.773)">
	<g id="g1133" transform="matrix(0.35277777,0,0,0.35277777,111.58742,140.59444)">
	</g>
</g>
<g>
	<g>
		<polygon points="168.1,110.3 118,48.5 109,37.3 94.5,37.3 67.1,37.3 55.5,37.3 52.7,48.5 23.2,165.7 20.4,176.9 32,176.9 
			34.8,165.7 64.3,48.5 103.6,48.5 164.7,123.9 154.2,165.7 53.5,165.7 78.3,67.2 96.2,67.2 145,127.6 140.2,147 76.9,147 92.2,86 
			83.4,75.1 65.4,147 62.5,158.2 74.1,158.2 137.3,158.2 148.9,158.2 151.7,147 153.9,138.5 157.3,124.9 148.5,114 110.6,67.2 
			101.5,56 87.1,56 81.1,56 69.5,56 66.7,67.2 41.9,165.7 39.1,176.9 50.7,176.9 151.3,176.9 162.9,176.9 165.7,165.7 173.5,134.9 
			176.9,121.3 		"/>
		<text transform="matrix(1 0 0 1 181.8236 106.5142)" class="st0 st1">DiamondApp</text>
		<text transform="matrix(1 0 0 1 184.2777 162.7603)" class="st0 st2">Group</text>
	</g>
</g>
</svg>
