<?xml version="1.0" encoding="utf-8"?>
<!-- Generator: Adobe Illustrator 25.2.3, SVG Export Plug-In . SVG Version: 6.00 Build 0)  -->
<svg version="1.1" id="Layer_1" xmlns="http://www.w3.org/2000/svg" xmlns:xlink="http://www.w3.org/1999/xlink" x="0px" y="0px"
	 viewBox="0 0 844 204" style="enable-background:new 0 0 844 204;" xml:space="preserve">
<style type="text/css">
	.st0{fill:url(#SVGID_1_);}
	.st1{fill:#208476;stroke:#FFFFFF;stroke-width:5;stroke-miterlimit:10;}
	.st2{fill:#208476;}
</style>
<g>
	<g>
		<linearGradient id="SVGID_1_" gradientUnits="userSpaceOnUse" x1="71.5957" y1="181.1688" x2="434.2624" y2="-101.4978">
			<stop  offset="0" style="stop-color:#123532"/>
			<stop  offset="1" style="stop-color:#156057"/>
		</linearGradient>
		<path class="st0" d="M264.5,128.4c-1-1-2.2-1.5-3.5-1.5h-39.3l1.3-0.9c13.5-9.3,23.6-17.9,30.3-25.8c6.6-7.9,10-16.6,10-26.2
			c0-13-5-23.3-15-30.7c0,0-0.1-0.1-0.1-0.1c-6.6-4.8-14.6-7.2-22.8-7.2h-19.7h-32H88c-0.4,0-0.8,0.1-1.1,0.4L42.4,71
			c-0.7,0.5-1.3,1.1-1.8,2c-0.4,0.8-0.7,1.6-0.7,2.5c0,0.6,0.2,1.6,0.7,2.8l16.4,21.2c1.2,1.6,2.7,2.4,4.3,2.4c1.1,0,2-0.3,2.8-0.9
			l20.9-16v75.3c0,1.4,0.5,2.5,1.5,3.5c1,1,2.2,1.5,3.5,1.5h59.7h35.7H261c1.4,0,2.5-0.5,3.5-1.5c1-1,1.5-2.2,1.5-3.5v-28.3
			C266,130.5,265.5,129.3,264.5,128.4z"/>
		<path class="st1" d="M212.2,83.9h-38.5l7.6-58.9c0.3-2.6-3-4-4.6-2l-73.3,89.8c-1.6,2-0.2,5,2.4,5h44l-7.9,58.2
			c-0.4,3,3.5,4.6,5.3,2.2l67.4-89.4C216.3,86.9,214.8,83.9,212.2,83.9z"/>
	</g>
	<path class="st2" d="M370.6,154.9c-6.3,0-11.8-0.8-16.7-2.4c-4.9-1.6-8.9-4-12-7.2c-3.1-3.2-5.3-7.1-6.5-11.8
		c-1.2-4.6-1.3-9.9-0.3-15.9c0.6-3.8,1.4-7.8,2.4-12.1c1-4.3,1.9-8.5,2.8-12.4c2-7.9,5.1-14.6,9.2-20.2c4.1-5.6,9.3-9.8,15.7-12.8
		c6.4-2.9,13.9-4.4,22.7-4.4c6,0,11.4,0.8,16.3,2.3c4.9,1.5,9.1,3.7,12.4,6.6c3.4,2.9,5.8,6.3,7.2,10.3c1.5,4,1.7,8.5,0.8,13.4
		c-0.2,0.8-0.6,1.5-1.2,2.1c-0.6,0.6-1.3,0.8-2.1,0.8h-16c-1.1,0-2-0.3-2.6-0.8c-0.6-0.5-0.9-1.4-1-2.7c0.2-5.3-1.2-9-4-11.1
		c-2.9-2.1-6.7-3.1-11.4-3.1c-5.7,0-10.6,1.6-14.7,4.7c-4.1,3.1-7,8.3-8.8,15.4c-1.9,7.5-3.6,15.3-5,23.2
		c-1.3,7.2-0.7,12.3,1.9,15.4c2.5,3.1,6.6,4.7,12.2,4.7c4.8,0,9.1-1,12.9-3c3.8-2,6.9-5.7,9.3-11.2c0.6-1.3,1.3-2.2,2-2.7
		c0.7-0.5,1.6-0.8,2.8-0.8h16c0.8,0,1.5,0.3,1.9,0.8c0.5,0.6,0.6,1.2,0.4,2.1c-1.3,4.8-3.2,9.2-5.8,13.2c-2.6,4-5.8,7.5-9.7,10.4
		c-3.9,2.9-8.5,5.2-13.7,6.8C383.2,154.1,377.3,154.9,370.6,154.9z"/>
	<path class="st2" d="M424.7,153.5c-0.9,0-1.7-0.3-2.2-1c-0.6-0.6-0.7-1.5-0.6-2.5l19.4-91c0.2-1,0.7-1.8,1.4-2.5
		c0.8-0.6,1.6-1,2.6-1h15c0.9,0,1.7,0.3,2.2,1c0.6,0.6,0.7,1.5,0.6,2.5l-6.8,31c2.9-2.9,6.2-5.3,9.9-7c3.6-1.7,7.9-2.6,12.9-2.6
		c5.8,0,10.6,1.2,14.5,3.7c3.9,2.4,6.5,6,8.1,10.6c1.5,4.6,1.5,10.3,0.1,16.9l-8.3,38.5c-0.2,1-0.7,1.8-1.4,2.5
		c-0.8,0.6-1.6,1-2.6,1h-15c-1,0-1.8-0.3-2.3-1c-0.5-0.6-0.7-1.5-0.5-2.5l8-37.6c1-4.9,0.8-8.7-0.8-11.4c-1.5-2.7-4.5-4.1-9-4.1
		c-2.9,0-5.5,0.6-8,1.8c-2.5,1.2-4.6,2.9-6.4,5.2c-1.8,2.3-3.1,5.1-3.8,8.4l-8,37.6c-0.2,1-0.7,1.8-1.4,2.5c-0.8,0.6-1.6,1-2.6,1
		H424.7z"/>
	<path class="st2" d="M533.2,154.9c-4.6,0-8.6-0.8-11.9-2.3c-3.4-1.5-6-3.7-7.9-6.6c-1.9-2.9-3.2-6.3-3.8-10.3
		c-0.6-4-0.5-8.4,0.3-13.3c0.3-1.7,0.6-3.3,0.9-4.8c0.3-1.4,0.7-3,1-4.6c1.2-4.8,2.8-9.1,4.8-13.1c2-4,4.5-7.4,7.4-10.3
		c2.9-2.9,6.4-5.1,10.3-6.8c3.9-1.6,8.3-2.4,13.2-2.4c5.7,0,10,0.9,13,2.6c2.9,1.7,5.2,3.8,6.9,6.3l0.8-4c0.2-1,0.7-1.8,1.4-2.5
		c0.8-0.6,1.6-1,2.6-1h13.1c1,0,1.8,0.3,2.3,1c0.5,0.6,0.7,1.5,0.5,2.5L574.4,150c-0.2,1-0.7,1.8-1.4,2.5c-0.8,0.6-1.7,1-2.7,1
		h-13.1c-1,0-1.8-0.3-2.3-1c-0.6-0.6-0.7-1.5-0.6-2.5l1.1-4.7c-2.9,2.8-5.9,5-9.2,6.8C543,154,538.6,154.9,533.2,154.9z
		 M541.1,138.3c3.5,0,6.5-0.8,8.9-2.3c2.4-1.6,4.4-3.5,5.9-5.9c1.5-2.4,2.6-5,3.4-7.7c0.5-1.7,0.9-3.5,1.2-5.2
		c0.4-1.7,0.7-3.4,1-5.1c0.5-2.6,0.5-5,0-7.2c-0.5-2.3-1.5-4.1-3.2-5.6c-1.7-1.5-4.2-2.2-7.5-2.2c-3.2,0-6,0.8-8.3,2.3
		c-2.3,1.5-4.2,3.5-5.6,6c-1.4,2.5-2.6,5.2-3.5,8.1c-0.4,1.4-0.7,2.8-1,4.3c-0.3,1.5-0.6,2.9-0.8,4.3c-0.4,2.9-0.4,5.7-0.2,8.1
		c0.2,2.5,1.1,4.5,2.6,6S537.8,138.3,541.1,138.3z"/>
	<path class="st2" d="M591.1,153.5c-0.9,0-1.7-0.3-2.2-1c-0.6-0.6-0.7-1.5-0.6-2.5l13.8-64.8c0.2-0.9,0.7-1.7,1.5-2.4s1.7-1,2.6-1
		h13.5c1,0,1.8,0.3,2.3,1c0.5,0.7,0.7,1.5,0.5,2.4l-1.2,5.5c2.2-2.8,5-4.9,8.3-6.5c3.4-1.6,7.5-2.4,12.3-2.4h7.3c1,0,1.7,0.3,2.2,1
		c0.5,0.6,0.6,1.5,0.4,2.5l-2.5,12c-0.2,0.9-0.7,1.7-1.4,2.3c-0.8,0.6-1.7,1-2.7,1h-12c-4.1,0-7.6,1.2-10.3,3.4
		c-2.8,2.3-4.5,5.5-5.4,9.5l-7.9,36.5c-0.2,1-0.7,1.8-1.4,2.5c-0.8,0.6-1.6,1-2.6,1H591.1z"/>
	<path class="st2" d="M671.9,183.8c-6.6,0-12-0.9-16.1-2.7c-4.1-1.8-7.4-4-9.7-6.5c-2.3-2.5-3.8-5-4.6-7.5c-0.8-2.5-1-4.5-0.8-5.9
		c0.2-0.9,0.6-1.7,1.3-2.4s1.5-1,2.4-1h15.2c0.9,0,1.6,0.2,2.1,0.6c0.5,0.4,0.7,1.2,0.8,2.3c0.2,1.1,0.6,2.3,1.2,3.5
		c0.6,1.2,1.6,2.3,3.1,3.1c1.5,0.8,3.6,1.2,6.5,1.2c2.8,0,5.3-0.5,7.7-1.4c2.4-0.9,4.5-2.5,6.3-4.7c1.8-2.2,3.1-5.2,3.8-9l1.9-9.2
		c-2.7,2.4-5.7,4.4-9,5.9c-3.3,1.6-7.4,2.3-12.1,2.3c-5,0-9.1-0.8-12.5-2.3c-3.4-1.5-6.1-3.7-8-6.5c-1.9-2.8-3.2-6.2-3.7-10.1
		c-0.6-4-0.4-8.4,0.4-13.4c0.2-1.4,0.4-2.6,0.6-3.7c0.2-1.1,0.5-2.3,0.9-3.7c1.3-4.8,2.9-9.1,5-13.1c2-4,4.5-7.4,7.3-10.3
		c2.8-2.9,6.2-5.1,10-6.8c3.8-1.6,8.2-2.4,13.2-2.4c5.1,0,9.3,1,12.8,2.9c3.4,1.9,6,4.3,7.7,7.2l1.1-5.2c0.2-0.9,0.7-1.7,1.5-2.4
		s1.7-1,2.6-1h13.5c1,0,1.8,0.3,2.3,1c0.5,0.7,0.7,1.5,0.5,2.4l-14.1,66.3c-1,5.1-2.6,9.7-4.6,13.7c-2.1,4-4.8,7.4-8.1,10.1
		c-3.3,2.8-7.3,4.8-12,6.3C683.5,183.1,678.1,183.8,671.9,183.8z M679.6,136.3c3.3,0,6.2-0.7,8.7-2.2c2.5-1.5,4.5-3.4,6.1-5.7
		c1.6-2.3,2.8-4.8,3.5-7.4c0.3-1,0.6-2.5,1-4.3c0.4-1.9,0.6-3.3,0.8-4.3c0.4-2.6,0.3-5-0.1-7.3c-0.5-2.3-1.5-4.2-3.2-5.7
		c-1.7-1.5-4.2-2.3-7.5-2.3c-3.3,0-6.1,0.8-8.5,2.3c-2.3,1.5-4.3,3.5-5.9,6c-1.6,2.5-2.7,5.2-3.4,8.1c-0.3,1-0.6,2.1-0.8,3.2
		c-0.3,1.2-0.5,2.2-0.6,3.2c-0.5,3-0.6,5.8-0.3,8.3c0.3,2.5,1.2,4.5,2.8,5.9C673.9,135.5,676.3,136.3,679.6,136.3z"/>
	<path class="st2" d="M760.2,154.9c-7,0-12.8-1.3-17.4-3.9c-4.6-2.6-7.8-6.5-9.6-11.7c-1.7-5.1-2-11.4-0.7-18.9
		c0.2-0.7,0.4-1.7,0.6-3c0.2-1.2,0.4-2.2,0.6-2.8c1.8-7.2,4.7-13.3,8.7-18.4c4-5.1,8.8-9,14.5-11.7c5.7-2.7,12.1-4.1,19-4.1
		c7.8,0,13.9,1.6,18.4,4.8c4.5,3.2,7.4,7.5,8.9,13c1.5,5.5,1.5,11.7,0,18.8l-0.7,3.2c-0.2,0.9-0.7,1.7-1.5,2.4s-1.7,1-2.8,1h-45
		c-0.1,0.5-0.1,0.8-0.1,1c-0.6,2.9-0.6,5.6-0.1,8.1c0.5,2.4,1.6,4.4,3.2,5.9c1.7,1.5,3.9,2.2,6.6,2.2c2.2,0,4.1-0.3,5.8-1
		c1.7-0.7,3.1-1.5,4.2-2.3c1.1-0.9,2-1.6,2.7-2.3c1-1,1.8-1.6,2.3-1.9c0.6-0.2,1.4-0.3,2.5-0.3h14.5c0.8,0,1.5,0.3,1.9,0.8
		c0.5,0.6,0.6,1.2,0.4,2.1c-0.5,1.6-1.6,3.4-3.4,5.6c-1.8,2.2-4.4,4.3-7.7,6.3c-3.3,2.1-7.1,3.8-11.4,5.2
		C770.3,154.2,765.5,154.9,760.2,154.9z M756,110.9h26.9l0.1-0.4c0.7-3.2,0.8-6,0.2-8.5c-0.6-2.4-1.7-4.3-3.4-5.7
		c-1.7-1.4-4-2.1-6.8-2.1c-2.9,0-5.4,0.7-7.7,2.1c-2.3,1.4-4.2,3.3-5.8,5.7c-1.6,2.4-2.7,5.3-3.3,8.5L756,110.9z"/>
</g>
</svg>
