<?xml version="1.0" encoding="utf-8"?>
<!-- Generator: Adobe Illustrator 25.4.1, SVG Export Plug-In . SVG Version: 6.00 Build 0)  -->
<svg version="1.1" id="Layer_1" xmlns="http://www.w3.org/2000/svg" xmlns:xlink="http://www.w3.org/1999/xlink" x="0px" y="0px"
	 viewBox="0 0 739 238" style="enable-background:new 0 0 739 238;" xml:space="preserve">
<g id="layer1" transform="translate(0,-260.773)">
	<g id="g1133" transform="matrix(0.35277777,0,0,0.35277777,111.58742,140.59444)">
	</g>
</g>
<g>
	<g id="g11533" transform="translate(-21.07066,138.86342)">
		<path id="path4250" d="M420.2-81.2v41.7c0,11.8-5.9,18.2-16.6,18.2s-16.7-6.5-16.7-18.7v-41.1h-14.8v41.6
			c0,20.5,11.4,32.2,31.2,32.2c20,0,31.5-12,31.5-32.8v-41.1L420.2-81.2z M474.6-81.2L442.5-8.4h15.1l6.2-14.1l0.4-1.1h33.3L504-8.4
			h15.5l-31.8-72.4l-0.3-0.4L474.6-81.2z M562.4-81.2l-16.5,50.1l-16.1-50.1h-15.7l25.4,72.8h12.2l16.6-47.8l16.6,47.8h12.3
			l25.3-72.8h-15.3L591-31.1l-16.5-50.1H562.4z M707-81.2v72.7h14.6v-72.7H707z M288.8-81.2v72.8h14.8V-38H337v29.6h14.8v-72.8H337
			v29.4h-33.4v-29.4H288.8z M634.4-81.2v72.7h55v-13.3H649v-18h26.9V-53H649v-14.9h39v-13.3L634.4-81.2z M480.8-62.8l10.5,24.4l0,0
			l0.7,1.7h-22.4l0.7-1.7l0,0L480.8-62.8z"/>
		<path id="path4252" d="M143.8-131.2c-2.6,0.2-9.8,1.9-9.8,1.9l0,0c-16.1,4.2-19.9,18.7-19.9,18.7c-0.8,2.5-1.1,5-1.2,7.3v3.2
			c0.2,5,1.3,8.7,1.3,8.7c5.4,23.8,31.7,62.9,37.4,71.1c0.4,0.4,0.7,0.3,0.7,0.3c0.6-0.2,0.6-0.8,0.6-0.8l0,0
			C161.7-108.1,143.8-131.2,143.8-131.2L143.8-131.2z M172.7-131.2c0,0-18,23.1-9.2,110.5l0,0c0.1,0.6,0.5,0.7,0.5,0.7
			c0.6,0.2,0.9-0.3,0.9-0.3l0,0c5.8-8.4,32-47.3,37.4-71c0,0,2.9-11.5,0.1-19.2c0,0-4-14.8-20.1-18.7
			C182.3-129.4,177.6-130.5,172.7-131.2L172.7-131.2z M89.8-105c0,0-15.3,14.5-16.1,29.9l0,0v2.3c0,0.2,0,0.4,0,0.5
			c0.7,12.4,10,19.8,10,19.8c15.1,14.7,51.5,33.2,60,37.4c0.1,0,0.6,0.2,0.8-0.1c0,0,0.1-0.1,0.2-0.3v-0.4c0,0,0,0,0-0.1l0,0
			C121.5-66.6,89.8-105,89.8-105L89.8-105z M226.7-105c0,0-31.6,38.3-54.8,88.8l0,0c0,0-0.3,0.6,0.2,1c0,0,0.1,0.1,0.3,0.1h0.3
			c0.1,0,0.1,0,0.2-0.1l0,0c8.7-4.3,44.9-22.7,59.8-37.3c0,0,9.5-7.6,10-19.8C243.8-89.3,226.7-105,226.7-105L226.7-105z
			 M255.2-54.7c0,0-51.6,27.7-78.2,45.7l0,0l0,0c0,0-0.5,0.3-0.3,0.9c0,0,0.3,0.5,0.6,0.5l0,0c9.6,0,45.7,0.1,46.6-0.1
			c0,0,4.7-0.2,10.4-2.4c0,0,12.9-4.1,19.5-18.7c0,0,3.1-6.1,3.1-14.7v-0.4C256.9-47.3,256.5-50.9,255.2-54.7L255.2-54.7z
			 M61.3-54.6c-4.7,14.5,1.6,26.2,1.6,26.2C69.5-14.5,82-10.3,82-10.3c5.8,2.4,11.6,2.5,11.6,2.5c0.9,0.2,36.1,0,45.5,0
			c0.4,0,0.6-0.4,0.6-0.4l0.1-0.1v-0.4c-0.1-0.2-0.3-0.4-0.3-0.4l0,0C113-27,61.3-54.6,61.3-54.6L61.3-54.6z M138.1-3.2L77.5-1.1
			c6.6,11.7,17.7,20.8,29.2,18c8-2,26-14.6,32-18.8l0,0c0.5-0.4,0.3-0.8,0.3-0.8C138.8-3.2,138.1-3.2,138.1-3.2L138.1-3.2z
			 M178.3-3.2L178.3-3.2c0,0-0.5,0.1-0.7,0.5c0,0-0.1,0.5,0.2,0.8l0,0c5.8,4.2,23.4,16.5,31.9,18.9c0,0,1.3,0.4,3.4,0.5h1.3
			c5.7-0.2,15.6-3.1,24.6-18.6L178.3-3.2z"/>
	</g>
</g>
</svg>
