<?xml version="1.0" encoding="utf-8"?>
<!-- Generator: Adobe Illustrator 25.4.1, SVG Export Plug-In . SVG Version: 6.00 Build 0)  -->
<svg version="1.1" id="Layer_1" xmlns="http://www.w3.org/2000/svg" xmlns:xlink="http://www.w3.org/1999/xlink" x="0px" y="0px"
	 viewBox="0 0 739 238" style="enable-background:new 0 0 739 238;" xml:space="preserve">
<g id="layer1" transform="translate(0,-260.773)">
	<g id="g1133" transform="matrix(0.35277777,0,0,0.35277777,111.58742,140.59444)">
	</g>
</g>
<g>
	<g>
		<g>
			<g>
				<g>
					<polygon points="565.6,114.1 564.5,46.9 585.7,46.9 585.7,131.5 555.2,131.5 534.1,62.1 533.6,62.1 534.8,131.5 513.7,131.5 
						513.7,46.9 545.5,46.9 565.2,114.1 					"/>
					<polygon points="180.7,54.8 169,132.4 145.9,132.4 161.8,46.9 199.8,46.9 215.6,132.4 192.6,132.4 181.2,54.8 					"/>
					<polygon points="280.5,112.3 291,46.9 325.9,46.9 327.8,132.4 306.4,132.4 305.8,55.5 305.4,55.5 291.1,132.4 269.4,132.4 
						255.1,55.5 254.6,55.5 254.1,132.4 232.7,132.4 234.6,46.9 269.5,46.9 280,112.3 					"/>
					<path d="M109.9,108.3c0.8,2.1,0.6,4.7,0.2,6.3c-0.7,2.8-2.7,5.7-8.3,5.7c-5.4,0-8.6-3.1-8.6-7.8v-8.3h-23v6.6
						c0,19.1,15,24.8,31.1,24.8c15.5,0,28.2-5.3,30.2-19.5c1-7.4,0.3-12.2-0.1-14.1c-3.6-17.7-36-23.1-38.4-33.1
						c-0.4-1.7-0.3-3.5-0.1-4.5c0.6-2.7,2.5-5.7,7.8-5.7c5,0,8,3.1,8,7.8c0,1.6,0,5.3,0,5.3H130v-6c0-18.6-16.7-21.5-28.8-21.5
						c-15.2,0-27.6,5-29.9,18.9c-0.6,3.8-0.7,7.3,0.2,11.6C75.1,92.2,105.5,97.2,109.9,108.3z"/>
					<path d="M388,108.2c0.8,2.1,0.6,4.7,0.2,6.3c-0.7,2.8-2.6,5.7-8.3,5.7c-5.3,0-8.5-3.1-8.5-7.7v-8.2h-22.7v6.5
						c0,18.9,14.9,24.6,30.8,24.6c15.3,0,27.9-5.2,29.9-19.3c1-7.3,0.3-12.1-0.1-13.9c-3.6-17.7-35.7-23-38.1-33
						c-0.4-1.7-0.3-3.5-0.1-4.4c0.6-2.8,2.4-5.7,7.7-5.7c5,0,7.8,3,7.8,7.7c0,1.6,0,5.2,0,5.2h21.2v-6c0-18.4-16.6-21.3-28.6-21.3
						c-15,0-27.4,5-29.6,18.8c-0.6,3.8-0.7,7.1,0.2,11.4C353.6,92.2,383.7,97.2,388,108.2z"/>
					<path d="M459.9,119.6c5.9,0,7.8-4.1,8.2-6.2c0.2-0.9,0.2-2.2,0.2-3.3V46.9h21.6v61.4c0.1,1.6-0.1,4.8-0.2,5.6
						c-1.5,16-14.1,21.2-29.9,21.2c-15.7,0-28.4-5.2-29.9-21.2c-0.1-0.8-0.2-4.1-0.2-5.6V46.9h21.6v63.3c0,1.1,0,2.4,0.2,3.3
						C452.1,115.5,453.9,119.6,459.9,119.6z"/>
					<path d="M638.3,118.7c6.2,0,8.4-3.9,8.8-6.2c0.2-1,0.2-2.2,0.2-3.2V96.9h-8.8V84.4h30.3v23c0,1.6-0.1,2.8-0.3,5.6
						c-1.4,15.6-14.9,21.1-30.1,21.1c-15.2,0-28.7-5.6-30.1-21.1c-0.2-2.9-0.3-4-0.3-5.6v-36c0-1.5,0.2-4.2,0.4-5.6
						c1.9-16,14.9-21.1,30-21.1c15.2,0,28.5,5.1,30,21.1c0.3,2.7,0.2,5.6,0.2,5.6v2.9H647v-4.8c0,0,0-2-0.3-3.2
						c-0.4-1.9-2-6.2-8.5-6.2c-6.2,0-8.1,4.1-8.5,6.2c-0.3,1.1-0.4,2.7-0.4,4v39.1c0,1.1,0.1,2.3,0.2,3.2
						C630,114.8,632.1,118.7,638.3,118.7z"/>
				</g>
			</g>
		</g>
	</g>
</g>
</svg>
