<?xml version="1.0" encoding="utf-8"?>
<!-- Generator: Adobe Illustrator 25.4.1, SVG Export Plug-In . SVG Version: 6.00 Build 0)  -->
<svg version="1.1" id="Layer_1" xmlns="http://www.w3.org/2000/svg" xmlns:xlink="http://www.w3.org/1999/xlink" x="0px" y="0px"
	 viewBox="0 0 739 238" style="enable-background:new 0 0 739 238;" xml:space="preserve">
<g id="layer1" transform="translate(0,-260.773)">
	<g id="g1133" transform="matrix(0.35277777,0,0,0.35277777,111.58742,140.59444)">
	</g>
</g>
<g>
	<g>
		<path d="M321.4,76.1c0-8.4,2.5-15.8,8.8-21.6c6.4-5.8,14.2-7.8,22.6-7c5.6,0.5,10.6,2.4,14.8,6.2c1.6,1.5,2.6,3.1,2.1,5.4
			c-0.7,3.3-4.6,4.5-7.6,2.4c-1.3-0.9-2.5-1.8-3.8-2.6c-8.9-5-23.6-1.8-26.2,12.7c-1,5.8-0.4,11.4,3.1,16.3c4,5.8,9.8,7.8,16.7,7.2
			c3.6-0.3,6.7-1.9,9.5-4c1.4-1.1,3-1.9,4.9-1.5c3.4,0.7,4.9,4.6,2.7,7.3c-2.5,3.1-5.9,5.1-9.7,6.3c-10.1,3.1-19.6,1.9-28.1-4.8
			c-5.5-4.3-8.3-10.3-9.4-17.1C321.4,79.7,321.4,77.9,321.4,76.1z"/>
		<path d="M458.3,99.4c-2,2.9-4.5,4.7-7.9,5.3c-8,1.4-14.7-3-16.6-10.9c-0.5-2.1-0.8-4.2-0.8-6.4c0-5,0-10.1,0-15.1
			c0-2.5,1.3-4.3,3.4-5.1c2-0.7,4.2,0,5.5,1.6c0.9,1.1,1.2,2.5,1.2,3.9c0,4.8,0,9.6,0,14.4c0,1.3,0.1,2.5,0.5,3.7
			c1.3,3.7,4.4,5.4,8.6,4.8c3.4-0.5,6.1-3.6,6.1-7.4c0.1-5.3,0-10.5,0-15.8c0-2.4,1.2-4.3,3.2-5.1c3.2-1.3,6.8,1,6.8,4.5
			c0,5.5,0,11,0,16.5c0,3.6,0,7.3,0,10.9c0,3.1-1.6,5-4.5,5.3c-2.7,0.3-4.8-1.3-5.4-4.3C458.5,100.1,458.4,99.8,458.3,99.4z"/>
		<path d="M263.1,76.9c2.9,0,5.8,0,8.7,0c2.1,0,2.8,0.8,2.9,2.9c0,4.5,0,8.9,0,13.4c0,1.2-0.4,2.1-1.2,3c-4.9,5-10.9,7.6-17.8,8.5
			c-5.7,0.7-11.4,0.2-16.6-2.3c-7.8-3.7-12.4-10-14.3-18.2c-2.2-9.2-1.1-18,4.6-25.8c6.2-8.5,14.9-11.7,25.2-10.8
			c6,0.5,11.2,2.8,15.6,7c0.2,0.2,0.3,0.3,0.5,0.5c0.9,1.1,1,2.6,0.1,3.4c-0.9,0.9-2.4,0.8-3.4,0c-0.3-0.2-0.5-0.5-0.8-0.8
			c-11-10.1-32.1-7-36.9,11.9c-1.6,6.3-1,12.6,1.7,18.5c3.2,6.8,8.5,11,16,12.1c8,1.2,15.2-0.5,21.5-5.8c0.7-0.6,1-1.2,1-2.1
			c-0.1-3.2-0.1-6.4,0-9.6c0-1.2-0.4-1.4-1.5-1.4c-4.8,0.1-9.5,0-14.3,0c-1.9,0-3-1.7-2.1-3.2c0.5-0.9,1.3-1.1,2.2-1.1
			C257.1,76.9,260.1,76.9,263.1,76.9z"/>
		<path d="M385.4,76.2c0,7.5,0,15,0,22.5c0,3.2-1.4,5.2-4,5.8c-3.2,0.7-6-1.6-6.1-4.9c-0.1-1.5,0-3.1,0-4.6c0-13.8,0-27.7,0-41.5
			c0-3,1.4-4.9,4-5.6c2.6-0.6,5.4,1.2,5.9,3.8c0.1,0.8,0.2,1.6,0.2,2.4C385.4,61.4,385.4,68.8,385.4,76.2z"/>
		<path d="M671.6,98.4c-5.3,7.4-15.4,7.7-20.9,4.9c-4.8-2.5-7.2-6.7-8-11.9c-0.4-2.2-0.2-4.4-0.2-6.6c0-5,0-10,0-15
			c0-1.8,1-2.9,2.5-2.9s2.5,1.1,2.5,2.9c0,6,0,12,0,18c0,1.4,0.1,2.8,0.5,4.2c1.2,4.9,4.7,7.8,9.7,8.2c8.5,0.5,13.9-4.7,13.9-13.7
			c0-5.4,0-10.8,0-16.2c0-0.5,0-1,0.1-1.5c0.3-1.2,1.2-1.8,2.4-1.8s2.1,0.5,2.4,1.7c0.1,0.4,0.1,0.8,0.1,1.2c0,10.5,0,21.1,0,31.6
			c0,0.6,0,1.2-0.3,1.8c-0.6,1-1.5,1.4-2.6,1.2c-1.2-0.2-2-1-2.1-2.3C671.5,101,671.6,99.7,671.6,98.4z"/>
		<path d="M583.5,74.3c2.5-4.6,6.3-6.9,11.3-7.2c1.9-0.1,3.1,0.7,3.1,2.2c0,1.3-0.6,2.2-1.8,2.2c-8.1-0.3-12.2,7.6-12.5,14
			c-0.2,5-0.1,10-0.1,14.9c0,0.4,0,0.8,0,1.3c0,1.8-1,2.9-2.5,3s-2.7-1.2-2.7-3c0-10.6,0-21.2,0-31.7c0-1.8,1-2.9,2.5-2.9
			c1.6,0,2.6,1.1,2.6,2.9C583.6,71.4,583.5,72.8,583.5,74.3z"/>
		<path d="M523,104.4c-2,0-3.6-1.5-3.6-3.5c0-1.9,1.6-3.5,3.5-3.6c2,0,3.6,1.5,3.6,3.5S524.9,104.4,523,104.4z"/>
		<path d="M723.5,81.2c-1.8-7.2-6-12.1-13.2-13.9s-13.7-0.1-18.6,5.8c-0.2,0.2-0.3,0.7-0.8,0.6c0-1.2,0-2.4,0-3.6
			c0-0.7,0-1.3-0.4-1.9c-0.7-0.9-1.6-1.4-2.8-1c-1.4,0.4-1.9,1.4-1.9,2.7c0,6.2,0,12.4,0,18.6c0,9.6,0,19.1,0,28.7
			c0,2.1,1,3.2,2.9,3c1.4-0.1,2.1-1.1,2.2-2.9c0-6,0-12,0-18c0-0.4-0.2-0.9,0.2-1.4c0.8,0.9,1.5,1.8,2.4,2.5c10,9,26.2,4.3,29.8-8.7
			c0.3-1,0.2-2.2,0.8-3.2c0-0.5,0-0.9,0-1.4c-0.4-0.9-0.4-1.9,0-2.8c0-0.3,0-0.6,0-0.8C723.5,82.8,723.6,82,723.5,81.2z M713.7,97.6
			c-2.5,2.1-5.5,3-8.8,3c-9.7-0.1-14.8-8.3-14-16.2c0.7-6.8,4.7-11.6,10.5-13c9.2-2.2,17.2,4,17.5,13.5
			C719,89.9,717.7,94.3,713.7,97.6z"/>
		<path d="M198.4,79.5c-4.4-21.4-23-37.1-44.8-37.9c-7.1-0.2-13.9,1.1-20.4,3.9c-1.3,0.6-1.9,0.6-2.6-0.8c-2.1-4.1-4.9-7.8-8-11.2
			c-11.6-12.6-25.9-19.3-43-20.3c-2,0-3.9,0-5.9,0c-32,1.6-57.2,27.1-58.7,59.3c0,1.6,0,3.2,0,4.8c0.1,4.4,0.7,8.8,1.9,13.1
			c4.8,17.8,15.4,31,31.7,39.5c10.6,5.5,21.9,8,33.9,6.3c5.9-0.8,11-3.6,14.6-8.5c5.3-7.3,6-15.3,3.1-23.6c-0.8-2.2-1-3.6,1.1-5.3
			c2.4-2,2.7-5,1.6-8c-1-2.7-2.9-4.6-5.8-5.1c-1.6-0.3-3.2-0.5-4.8-1c-2.8-0.8-5.2-0.4-7.5,1.4c-1.4,1.1-3,1.3-4.6,0.4
			c-7.2-4.1-12.8-9.7-16.9-16.8c-1-1.7-0.8-3.3,0.3-4.8c0.8-1.1,1.4-2.3,1.6-3.7c0.3-1.6-1.3-9.8-2.2-11.2
			c-2.8-4.3-8.9-4.9-12.5-1.3c-1.6,1.6-2.9,3.5-4.3,5.3c-1.8,2.3-2.4,4.8-1.6,7.7c6.6,23.2,21.5,37.8,45,43.6c0.7,0.2,1,0.4,1.3,1
			c0.7,1.7,1.1,3.4,1.2,5.1c0.6,6-1.9,12.6-9.3,14.8c-4.5,1.4-9.2,0.9-13.7,0.3c-10.8-1.6-20.2-6.1-28.1-13.6
			c-12.3-11.8-17.7-26.2-16.2-43.2c1-11.2,5.3-21.1,12.8-29.4C50.8,26,67.3,20.2,86.5,23.7c15.6,2.8,27.4,11.6,35.5,25.2
			c0.6,1,0.6,1.5-0.6,2.1c-3.1,1.5-5.7,3.7-7.7,6.6c-3,4.2-3.2,10-0.5,14.2c2.7,4.4,7.6,6.6,12.8,5.8c5-0.8,9.3-4.7,10.5-9.6
			c1-4.1,0.4-8-0.8-11.9c-0.3-0.9-0.2-1.3,0.7-1.6c5.5-2.3,11.2-3.4,17.1-3.1c9.3,0.5,17.3,3.9,24.1,10.1
			c13.3,12.2,16.1,32.9,6.3,48.1c-6.6,10.3-16.1,16.2-28.3,17.6c-8.7,1-16.9-0.9-24.4-5.7c-1.5-1-3-1.2-4.8-0.7
			c-2.3,0.7-4.7,1.2-7,1.9c-1.2,0.4-1.2,0-0.9-1c0.7-2.4,1.3-4.8,1.9-7.1c0.4-1.6,0.2-3-0.7-4.4c-1.9-2.9-3.3-5.9-4.3-9.2
			c-0.9-2.9-3.5-4.2-6.1-3.4c-2.6,0.9-3.8,3.5-2.9,6.3c1,3.1,2.2,6,3.8,8.8c0.4,0.8,0.5,1.4,0.3,2.2c-1.2,4.3-2.4,8.7-3.5,13.1
			c-0.2,0.8-0.4,1.6-0.3,2.5c0.6,3,3.2,4.6,6.3,3.8c4.3-1.1,8.6-2.3,12.9-3.5c1-0.3,1.8-0.2,2.7,0.3c10.5,5.7,21.6,7.4,33.2,4.8
			C187.6,130,203.7,105.1,198.4,79.5z M125.5,67.8c-1.2,0.6-2.5,0.5-3.5-0.4s-1.3-2.1-0.8-3.3c0.9-2.5,3.1-3.7,5.3-5
			c0.5-0.3,0.5,0.2,0.6,0.5c0.4,1.2,0.7,2.5,0.7,3.9C127.7,65.2,127.3,66.9,125.5,67.8z"/>
		<path d="M511.5,53.3c0-0.6,0-1.1-0.1-1.7c-0.6-2.5-2.9-4.2-5.4-3.9c-2.6,0.2-4.6,2.4-4.6,5.1c0,5.9,0,11.8,0,17.8c0,0.5,0,1,0,1.7
			c-1.1-1.3-2.1-2.4-3.2-3.3c-6.3-4.4-16-2.6-20.8,4c-3.4,4.7-4.4,10-3.8,15.6c0.5,4.5,2.2,8.6,5.4,11.8c5.7,5.7,16.7,6.5,22.6-1.1
			c0.1,0.3,0.1,0.4,0.1,0.5c0.7,3.2,2.7,4.9,5.3,4.6c2.8-0.3,4.4-2.4,4.4-5.6C511.5,83.8,511.5,68.5,511.5,53.3z M500.9,89.6
			c-1.3,4.5-4.5,6.9-8.9,6.7c-4-0.2-7.2-3.1-8.1-7.4c-0.6-2.6-0.5-5.3,0.5-7.8c1.3-3.6,4.3-5.8,8.1-5.8c3.7,0,6.7,2.1,8.1,5.7
			c0.6,1.6,0.9,3.2,0.9,4.9C501.5,87.2,501.3,88.4,500.9,89.6z"/>
		<path d="M409.7,66.7c-11.1,0-19.2,8-19.2,19.1c-0.3,10.1,7.5,19.1,18.7,19.1c11.2,0.1,19.3-7.9,19.5-18.8
			C428.8,75.8,421.1,66.7,409.7,66.7z M417.7,90.7c-1.6,3.5-4.3,5.4-8.7,5.4c-3.1,0-5.7-1.6-7.3-4.6c-1.9-3.4-1.9-7.1-0.4-10.6
			c1.7-4,5.2-5.8,9.6-5.3c3.6,0.4,6.8,3.6,7.5,7.6C418.9,85.8,418.8,88.4,417.7,90.7z"/>
		<path d="M569.4,69.8c0-1.7-1-2.8-2.5-2.8s-2.5,1.1-2.5,2.7c0,1.4,0,2.7,0,4.3c-7.5-10.1-21.5-8.7-28-2.1c-6.9,7-7,19.6,0,26.6
			c6.7,6.7,20.5,7.9,28-2.1c0,2.8,0,5.4-0.2,7.9c-0.6,6.2-4.2,10.2-10.3,11.3c-5.4,1-10.5,0-15.4-2.4c-0.8-0.4-1.6-0.8-2.5-0.8
			c-0.8,0-1.5,0.1-1.9,0.9c-0.3,0.8-0.3,1.6,0.3,2.3c0.5,0.6,1.2,1,1.9,1.3c6.5,3.3,13.3,4,20.4,2.4c5.2-1.1,8.9-4.2,11-9.2
			c1.2-2.8,1.6-5.7,1.7-8.7c0-8.3,0-16.6,0-24.9C569.4,74.3,569.4,72.1,569.4,69.8z M550,99.6c-8.2,0-13.9-5.8-13.9-14.4
			c0-8.5,5.6-14.3,13.9-14.3c7.9,0,14.2,6.4,14.3,14.3C564.4,93.1,557.9,99.6,550,99.6z"/>
		<path d="M617.5,66.7c-11.3,0-19.5,8-19.5,19.1c-0.1,10.7,8.2,19.1,18.6,19.1c11.3,0,19.5-8,19.5-19.1
			C636.1,75.1,628,66.7,617.5,66.7z M622,99.6c-9.3,3.6-18.9-3.4-18.9-13.8c0-7.2,4.6-13.1,11-14.4c7.2-1.4,13.8,2.4,16.1,9.5
			C632.8,88.6,629.1,96.9,622,99.6z"/>
		<path d="M299.3,66.7c-11.3,0-19.5,8-19.5,19.1c0,10.8,8.2,19.1,18.8,19.1c11.2,0,19.3-8,19.3-19.1
			C317.9,75.1,309.8,66.7,299.3,66.7z M301.8,100.2c-8.8,1.7-16.6-4.6-16.8-13.7c-0.2-7.2,3.8-13,10-14.8
			c9.3-2.7,17.9,4.1,17.9,14.2C312.8,93,308.2,99,301.8,100.2z"/>
	</g>
</g>
</svg>
