<?xml version="1.0" encoding="utf-8"?>
<!-- Generator: Adobe Illustrator 25.2.1, SVG Export Plug-In . SVG Version: 6.00 Build 0)  -->
<svg version="1.1" id="Layer_light" xmlns="http://www.w3.org/2000/svg" xmlns:xlink="http://www.w3.org/1999/xlink" x="0px" y="0px"
	 viewBox="0 0 597 166" style="enable-background:new 0 0 597 166;" xml:space="preserve">
<style type="text/css" >
	.st0{fill:#0C2317 !important;}
	.st1{fill:#FFFFFF !important;}
</style>
<g>
	<g>
		<g>
			<g>
				<g>
					<g>
						<g>
							<path class="st0" d="M157.2,164.28H9.86c-4.2,0-7.61-3.41-7.61-7.61V9.33c0-4.2,3.41-7.61,7.61-7.61H157.2
								c4.2,0,7.61,3.41,7.61,7.61v147.34C164.81,160.87,161.4,164.28,157.2,164.28z"/>
						</g>
					</g>
				</g>
			</g>
		</g>
		<g>
			<path class="st1" d="M69.52,81.78l20.78-36c0.29-0.49,0.29-1.1,0-1.6l-5.39-9.34c-0.61-1.06-2.15-1.06-2.76,0l-50.16,86.88
				c-0.61,1.06,0.15,2.39,1.38,2.39h10.79c0.57,0,1.1-0.3,1.38-0.8L60.44,97.5c0.61-1.06,2.15-1.06,2.76,0l14.91,25.82
				c0.29,0.49,0.81,0.8,1.38,0.8h10.79c1.23,0,2-1.33,1.38-2.39L69.52,83.37C69.23,82.88,69.23,82.27,69.52,81.78z"/>
			<path class="st1" d="M96.62,59.89l-5.39,9.34c-0.29,0.49-0.29,1.1,0,1.6l22.15,38.36c0.61,1.06-0.15,2.39-1.38,2.39h-8.95
				c-1.23,0-2,1.33-1.38,2.39l5.39,9.34c0.29,0.49,0.81,0.8,1.38,0.8h25.26c1.23,0,2-1.33,1.38-2.39l-35.7-61.83
				C98.77,58.83,97.23,58.83,96.62,59.89z"/>
		</g>
		<path class="st0" d="M236.72,114.64c-0.43-0.43-0.65-0.95-0.65-1.57V62.06h-17.07c-0.62,0-1.14-0.21-1.57-0.65
			c-0.43-0.43-0.65-0.95-0.65-1.57v-6.83c0-0.68,0.2-1.23,0.6-1.66c0.4-0.43,0.94-0.65,1.61-0.65h47.05c0.68,0,1.23,0.22,1.66,0.65
			c0.43,0.43,0.65,0.98,0.65,1.66v6.83c0,0.62-0.22,1.14-0.65,1.57c-0.43,0.43-0.98,0.65-1.66,0.65h-16.97v51.01
			c0,0.62-0.22,1.14-0.65,1.57c-0.43,0.43-0.98,0.65-1.66,0.65h-8.49C237.67,115.29,237.15,115.07,236.72,114.64z"/>
		<path class="st0" d="M329.57,110.58c-4.03-3.75-6.17-8.95-6.41-15.59l-0.09-3.69l0.09-3.69c0.25-6.64,2.38-11.84,6.41-15.59
			c4.03-3.75,9.42-5.63,16.19-5.63c4.8,0,8.87,0.86,12.22,2.58c3.35,1.72,5.84,3.83,7.47,6.32c1.63,2.49,2.51,4.84,2.63,7.06
			c0.06,0.62-0.14,1.14-0.6,1.57c-0.46,0.43-1,0.65-1.61,0.65h-8.12c-0.62,0-1.09-0.14-1.43-0.42c-0.34-0.28-0.66-0.75-0.97-1.43
			c-0.92-2.4-2.14-4.12-3.64-5.17c-1.51-1.04-3.43-1.57-5.77-1.57c-3.14,0-5.6,1-7.38,3c-1.78,2-2.74,5.03-2.86,9.09l-0.09,3.41
			l0.09,3.04c0.25,8.06,3.66,12.08,10.24,12.08c2.4,0,4.34-0.52,5.81-1.57c1.48-1.04,2.68-2.77,3.6-5.17
			c0.31-0.68,0.63-1.15,0.97-1.43c0.34-0.28,0.81-0.42,1.43-0.42h8.12c0.61,0,1.15,0.22,1.61,0.65c0.46,0.43,0.66,0.95,0.6,1.57
			c-0.12,2.15-0.98,4.46-2.58,6.92c-1.6,2.46-4.06,4.58-7.38,6.36c-3.32,1.78-7.44,2.68-12.36,2.68
			C338.99,116.21,333.59,114.33,329.57,110.58z"/>
		<path class="st0" d="M380.26,114.64c-0.43-0.43-0.65-0.95-0.65-1.57V52.01c0-0.68,0.21-1.21,0.65-1.61c0.43-0.4,0.95-0.6,1.57-0.6
			h8.21c0.68,0,1.21,0.2,1.61,0.6c0.4,0.4,0.6,0.94,0.6,1.61v21.03c3.69-4.43,8.67-6.64,14.94-6.64c5.66,0,10.18,1.86,13.56,5.58
			c3.38,3.72,5.07,8.78,5.07,15.17v25.92c0,0.62-0.2,1.14-0.6,1.57c-0.4,0.43-0.94,0.65-1.61,0.65h-8.3c-0.62,0-1.14-0.21-1.57-0.65
			c-0.43-0.43-0.65-0.95-0.65-1.57V87.7c0-3.63-0.88-6.44-2.63-8.44c-1.75-2-4.29-3-7.61-3c-3.26,0-5.84,1.01-7.75,3.04
			c-1.91,2.03-2.86,4.83-2.86,8.39v25.37c0,0.62-0.2,1.14-0.6,1.57c-0.4,0.43-0.94,0.65-1.61,0.65h-8.21
			C381.21,115.29,380.68,115.07,380.26,114.64z"/>
		<path class="st0" d="M307.43,73.04c-3.97-4.43-9.58-6.64-16.83-6.64c-6.77,0-12.16,2-16.19,6c-3.68,3.65-5.81,8.56-6.38,14.72
			h-8.59c-0.46,0-0.83,0.15-1.1,0.44c-0.27,0.29-0.41,0.67-0.41,1.13v4.66c0,0.42,0.15,0.78,0.44,1.07
			c0.29,0.29,0.65,0.44,1.07,0.44h8.54c0.45,6.55,2.57,11.68,6.34,15.39c4.03,3.97,9.46,5.95,16.28,5.95c4.3,0,8.09-0.74,11.35-2.21
			c3.26-1.48,5.77-3.21,7.52-5.21c1.75-2,2.63-3.74,2.63-5.21c0-0.49-0.2-0.91-0.6-1.25c-0.4-0.34-0.88-0.51-1.43-0.51h-7.93
			c-0.68,0-1.18,0.09-1.52,0.28c-0.34,0.18-0.78,0.62-1.34,1.29c-2.21,2.83-5.14,4.24-8.76,4.24c-3.08,0-5.49-1.15-7.24-3.46
			c-1.75-2.31-2.69-5.15-2.81-8.53V94.9h30.63c0.68,0,1.23-0.21,1.66-0.65c0.43-0.43,0.65-0.95,0.65-1.57v-1.94
			C313.38,83.37,311.39,77.47,307.43,73.04z M300.83,87.15h-20.39v-0.28c0-3.63,0.89-6.55,2.68-8.76c1.78-2.21,4.27-3.32,7.47-3.32
			c3.2,0,5.7,1.11,7.52,3.32c1.81,2.21,2.72,5.14,2.72,8.76V87.15z"/>
		<g>
			<path class="st0" d="M447.56,113.8c-3.25-1.46-5.76-3.37-7.53-5.74c-1.77-2.37-2.71-4.92-2.83-7.66c0-0.55,0.18-0.97,0.55-1.28
				c0.36-0.3,0.82-0.46,1.37-0.46l1.28,0c0.61,0,1.12,0.14,1.55,0.41c0.42,0.27,0.73,0.84,0.91,1.69c0.85,3.59,2.79,6.11,5.8,7.57
				c3.01,1.46,6.46,2.19,10.35,2.18c4.86,0,8.76-1.16,11.67-3.47c2.92-2.31,4.38-5.66,4.37-10.04c0-8.39-5.06-12.59-15.15-12.58
				l-8.03,0c-0.61,0-1.09-0.18-1.46-0.55s-0.55-0.85-0.55-1.46l0-1.37c0-0.67,0.27-1.4,0.82-2.19l18.78-22.18l-27.55,0.02
				c-0.61,0-1.09-0.18-1.46-0.55c-0.37-0.36-0.55-0.85-0.55-1.46l0-1.37c0-0.61,0.18-1.11,0.55-1.51c0.36-0.4,0.85-0.59,1.46-0.59
				l34.03-0.02c0.67,0,1.19,0.18,1.55,0.55c0.37,0.36,0.55,0.88,0.55,1.55l0,1.37c0,0.55-0.24,1.13-0.73,1.73l-19.24,22.54l1.82,0
				c6.45,0,11.54,1.51,15.28,4.55c3.74,3.04,5.61,7.54,5.62,13.5c0,3.89-0.94,7.28-2.82,10.17c-1.88,2.89-4.47,5.08-7.75,6.57
				c-3.28,1.49-7.02,2.24-11.22,2.24C454.63,115.99,450.81,115.26,447.56,113.8z"/>
			<path class="st0" d="M508.09,113.76c-3.44-1.46-6.16-3.61-8.17-6.47c-2.01-2.86-3.01-6.26-3.02-10.22c0-3.77,0.91-7.02,2.73-9.76
				c1.82-2.74,4.34-4.87,7.57-6.39c-2.55-1.4-4.53-3.27-5.93-5.61c-1.4-2.34-2.1-5.09-2.1-8.25c0-5.29,1.92-9.41,5.79-12.36
				c3.86-2.95,8.74-4.43,14.64-4.43c5.9,0,10.78,1.47,14.64,4.42c3.86,2.95,5.8,7.07,5.8,12.36c0,3.16-0.71,5.92-2.14,8.26
				c-1.43,2.34-3.39,4.21-5.88,5.61c3.22,1.52,5.75,3.65,7.57,6.38c1.83,2.74,2.74,5.99,2.74,9.76c0,3.95-1,7.36-3,10.22
				c-2.01,2.86-4.73,5.02-8.16,6.48c-3.44,1.46-7.28,2.19-11.54,2.2C515.37,115.95,511.52,115.22,508.09,113.76z M531.71,106.82
				c3.25-2.43,4.88-5.69,4.88-9.76c0-4.01-1.62-7.24-4.84-9.67c-3.23-2.43-7.27-3.64-12.13-3.64c-4.87,0-8.91,1.22-12.13,3.66
				c-3.22,2.44-4.83,5.66-4.83,9.67c0,4.08,1.63,7.33,4.89,9.76c3.25,2.43,7.28,3.64,12.09,3.64
				C524.43,110.47,528.46,109.25,531.71,106.82z M530.05,75.07c2.83-2.01,4.24-4.68,4.24-8.03c0-3.47-1.4-6.22-4.2-8.25
				c-2.8-2.03-6.3-3.05-10.49-3.05c-4.2,0-7.69,1.02-10.49,3.06c-2.8,2.04-4.19,4.79-4.19,8.26c0,3.47,1.4,6.2,4.2,8.21
				c2.8,2.01,6.3,3.01,10.49,3C523.74,78.15,527.22,77.08,530.05,75.07z"/>
			<path class="st0" d="M565.45,114.41c-0.33-0.39-0.5-0.87-0.5-1.41l0.18-0.82l23.41-55.57l-31.11,0.02
				c-0.61,0-1.09-0.18-1.46-0.55c-0.37-0.36-0.55-0.85-0.55-1.46l0-1.37c0-0.61,0.18-1.11,0.55-1.51c0.36-0.4,0.85-0.59,1.46-0.59
				l35.21-0.02c0.67,0,1.19,0.18,1.55,0.55c0.36,0.36,0.55,0.88,0.55,1.55l0,1.37c0,1.16-0.21,2.28-0.64,3.38l-23.05,54.75
				c-0.3,0.73-0.62,1.29-0.96,1.69c-0.33,0.4-0.81,0.59-1.41,0.59l-1.92,0C566.23,115,565.79,114.81,565.45,114.41z"/>
		</g>
	</g>
</g>
</svg>
