<?xml version="1.0" encoding="utf-8"?>
<!-- Generator: Adobe Illustrator 25.4.1, SVG Export Plug-In . SVG Version: 6.00 Build 0)  -->
<svg version="1.1" id="Layer_dark" xmlns="http://www.w3.org/2000/svg" xmlns:xlink="http://www.w3.org/1999/xlink"  x="0px" y="0px"
	 viewBox="0 0 597 166" style="enable-background:new 0 0 597 166;" xml:space="preserve">
<style type="text/css" >
	#logo .st0{fill:#FFFFFF !important;}
	#logo .st1{fill:#0C2317 !important;}
</style>
<g>
	<g>
		<g>
			<g>
				<g>
					<g>
						<g>
							<path class="st0" d="M157.2,164.3H9.9c-4.2,0-7.6-3.4-7.6-7.6V9.3c0-4.2,3.4-7.6,7.6-7.6h147.3c4.2,0,7.6,3.4,7.6,7.6v147.3
								C164.8,160.9,161.4,164.3,157.2,164.3z"/>
						</g>
					</g>
				</g>
			</g>
		</g>
		<g>
			<path class="st1" d="M69.5,81.8l20.8-36c0.3-0.5,0.3-1.1,0-1.6l-5.4-9.3c-0.6-1.1-2.2-1.1-2.8,0L32,121.7
				c-0.6,1.1,0.2,2.4,1.4,2.4h10.8c0.6,0,1.1-0.3,1.4-0.8l14.9-25.8c0.6-1.1,2.2-1.1,2.8,0l14.9,25.8c0.3,0.5,0.8,0.8,1.4,0.8h10.8
				c1.2,0,2-1.3,1.4-2.4L69.5,83.4C69.2,82.9,69.2,82.3,69.5,81.8z"/>
			<path class="st1" d="M96.6,59.9l-5.4,9.3c-0.3,0.5-0.3,1.1,0,1.6l22.2,38.4c0.6,1.1-0.2,2.4-1.4,2.4h-8.9c-1.2,0-2,1.3-1.4,2.4
				l5.4,9.3c0.3,0.5,0.8,0.8,1.4,0.8h25.3c1.2,0,2-1.3,1.4-2.4L99.4,59.9C98.8,58.8,97.2,58.8,96.6,59.9z"/>
		</g>
		<path class="st0" d="M236.7,114.6c-0.4-0.4-0.6-0.9-0.6-1.6v-51H219c-0.6,0-1.1-0.2-1.6-0.7c-0.4-0.4-0.6-1-0.6-1.6V53
			c0-0.7,0.2-1.2,0.6-1.7c0.4-0.4,0.9-0.7,1.6-0.7H266c0.7,0,1.2,0.2,1.7,0.7s0.6,1,0.6,1.7v6.8c0,0.6-0.2,1.1-0.6,1.6
			s-1,0.7-1.7,0.7h-17v51c0,0.6-0.2,1.1-0.6,1.6s-1,0.7-1.7,0.7h-8.5C237.7,115.3,237.1,115.1,236.7,114.6z"/>
		<path class="st0" d="M329.6,110.6c-4-3.8-6.2-8.9-6.4-15.6l-0.1-3.7l0.1-3.7c0.3-6.6,2.4-11.8,6.4-15.6s9.4-5.6,16.2-5.6
			c4.8,0,8.9,0.9,12.2,2.6s5.8,3.8,7.5,6.3s2.5,4.8,2.6,7.1c0.1,0.6-0.1,1.1-0.6,1.6s-1,0.7-1.6,0.7h-8.1c-0.6,0-1.1-0.1-1.4-0.4
			s-0.7-0.8-1-1.4c-0.9-2.4-2.1-4.1-3.6-5.2c-1.5-1-3.4-1.6-5.8-1.6c-3.1,0-5.6,1-7.4,3s-2.7,5-2.9,9.1l-0.1,3.4l0.1,3
			c0.3,8.1,3.7,12.1,10.2,12.1c2.4,0,4.3-0.5,5.8-1.6c1.5-1,2.7-2.8,3.6-5.2c0.3-0.7,0.6-1.2,1-1.4s0.8-0.4,1.4-0.4h8.1
			c0.6,0,1.1,0.2,1.6,0.7s0.7,0.9,0.6,1.6c-0.1,2.2-1,4.5-2.6,6.9c-1.6,2.5-4.1,4.6-7.4,6.4s-7.4,2.7-12.4,2.7
			C339,116.2,333.6,114.3,329.6,110.6z"/>
		<path class="st0" d="M380.3,114.6c-0.4-0.4-0.6-0.9-0.6-1.6V52c0-0.7,0.2-1.2,0.6-1.6c0.4-0.4,1-0.6,1.6-0.6h8.2
			c0.7,0,1.2,0.2,1.6,0.6c0.4,0.4,0.6,0.9,0.6,1.6v21c3.7-4.4,8.7-6.6,14.9-6.6c5.7,0,10.2,1.9,13.6,5.6s5.1,8.8,5.1,15.2v25.9
			c0,0.6-0.2,1.1-0.6,1.6s-0.9,0.7-1.6,0.7h-8.3c-0.6,0-1.1-0.2-1.6-0.7c-0.4-0.4-0.6-0.9-0.6-1.6V87.7c0-3.6-0.9-6.4-2.6-8.4
			s-4.3-3-7.6-3c-3.3,0-5.8,1-7.8,3s-2.9,4.8-2.9,8.4v25.4c0,0.6-0.2,1.1-0.6,1.6s-0.9,0.7-1.6,0.7h-8.2
			C381.2,115.3,380.7,115.1,380.3,114.6z"/>
		<path class="st0" d="M307.4,73c-4-4.4-9.6-6.6-16.8-6.6c-6.8,0-12.2,2-16.2,6c-3.7,3.7-5.8,8.6-6.4,14.7h-8.6
			c-0.5,0-0.8,0.2-1.1,0.4c-0.3,0.3-0.4,0.7-0.4,1.1v4.7c0,0.4,0.1,0.8,0.4,1.1s0.6,0.4,1.1,0.4h8.5c0.5,6.6,2.6,11.7,6.3,15.4
			c4,4,9.5,5.9,16.3,5.9c4.3,0,8.1-0.7,11.4-2.2c3.3-1.5,5.8-3.2,7.5-5.2s2.6-3.7,2.6-5.2c0-0.5-0.2-0.9-0.6-1.3s-0.9-0.5-1.4-0.5
			h-7.9c-0.7,0-1.2,0.1-1.5,0.3c-0.3,0.2-0.8,0.6-1.3,1.3c-2.2,2.8-5.1,4.2-8.8,4.2c-3.1,0-5.5-1.2-7.2-3.5s-2.7-5.2-2.8-8.5v-0.7
			h30.6c0.7,0,1.2-0.2,1.7-0.7c0.4-0.4,0.6-0.9,0.6-1.6v-1.9C313.4,83.4,311.4,77.5,307.4,73z M300.8,87.2h-20.4v-0.3
			c0-3.6,0.9-6.6,2.7-8.8c1.8-2.2,4.3-3.3,7.5-3.3s5.7,1.1,7.5,3.3c1.8,2.2,2.7,5.1,2.7,8.8V87.2z"/>
		<g>
			<path class="st0" d="M447.6,113.8c-3.3-1.5-5.8-3.4-7.5-5.7c-1.8-2.4-2.7-4.9-2.8-7.7c0-0.6,0.2-1,0.5-1.3
				c0.4-0.3,0.8-0.5,1.4-0.5h1.3c0.6,0,1.1,0.1,1.5,0.4c0.4,0.3,0.7,0.8,0.9,1.7c0.9,3.6,2.8,6.1,5.8,7.6c3,1.5,6.5,2.2,10.4,2.2
				c4.9,0,8.8-1.2,11.7-3.5c2.9-2.3,4.4-5.7,4.4-10c0-8.4-5.1-12.6-15.1-12.6h-8c-0.6,0-1.1-0.2-1.5-0.6s-0.5-0.8-0.5-1.5V81
				c0-0.7,0.3-1.4,0.8-2.2l18.8-22.2l-27.5,0c-0.6,0-1.1-0.2-1.5-0.5c-0.4-0.4-0.5-0.8-0.5-1.5v-1.4c0-0.6,0.2-1.1,0.5-1.5
				c0.4-0.4,0.9-0.6,1.5-0.6l34,0c0.7,0,1.2,0.2,1.5,0.5c0.4,0.4,0.5,0.9,0.5,1.5v1.4c0,0.5-0.2,1.1-0.7,1.7l-19.2,22.5h1.8
				c6.5,0,11.5,1.5,15.3,4.6s5.6,7.5,5.6,13.5c0,3.9-0.9,7.3-2.8,10.2s-4.5,5.1-7.8,6.6s-7,2.2-11.2,2.2
				C454.6,116,450.8,115.3,447.6,113.8z"/>
			<path class="st0" d="M508.1,113.8c-3.4-1.5-6.2-3.6-8.2-6.5s-3-6.3-3-10.2c0-3.8,0.9-7,2.7-9.8c1.8-2.7,4.3-4.9,7.6-6.4
				c-2.5-1.4-4.5-3.3-5.9-5.6c-1.4-2.3-2.1-5.1-2.1-8.3c0-5.3,1.9-9.4,5.8-12.4c3.9-3,8.7-4.4,14.6-4.4s10.8,1.5,14.6,4.4
				c3.9,3,5.8,7.1,5.8,12.4c0,3.2-0.7,5.9-2.1,8.3c-1.4,2.3-3.4,4.2-5.9,5.6c3.2,1.5,5.8,3.7,7.6,6.4c1.8,2.7,2.7,6,2.7,9.8
				c0,3.9-1,7.4-3,10.2c-2,2.9-4.7,5-8.2,6.5c-3.4,1.5-7.3,2.2-11.5,2.2C515.4,115.9,511.5,115.2,508.1,113.8z M531.7,106.8
				c3.3-2.4,4.9-5.7,4.9-9.8c0-4-1.6-7.2-4.8-9.7c-3.2-2.4-7.3-3.6-12.1-3.6c-4.9,0-8.9,1.2-12.1,3.7s-4.8,5.7-4.8,9.7
				c0,4.1,1.6,7.3,4.9,9.8c3.3,2.4,7.3,3.6,12.1,3.6C524.4,110.5,528.5,109.3,531.7,106.8z M530,75.1c2.8-2,4.2-4.7,4.2-8
				c0-3.5-1.4-6.2-4.2-8.3s-6.3-3-10.5-3c-4.2,0-7.7,1-10.5,3.1s-4.2,4.8-4.2,8.3s1.4,6.2,4.2,8.2c2.8,2,6.3,3,10.5,3
				C523.7,78.2,527.2,77.1,530,75.1z"/>
			<path class="st0" d="M565.5,114.4c-0.3-0.4-0.5-0.9-0.5-1.4l0.2-0.8l23.4-55.6l-31.1,0c-0.6,0-1.1-0.2-1.5-0.5
				c-0.4-0.4-0.5-0.8-0.5-1.5v-1.4c0-0.6,0.2-1.1,0.5-1.5c0.4-0.4,0.8-0.6,1.5-0.6l35.2,0c0.7,0,1.2,0.2,1.5,0.5
				c0.4,0.4,0.5,0.9,0.5,1.5v1.4c0,1.2-0.2,2.3-0.6,3.4l-23,54.8c-0.3,0.7-0.6,1.3-1,1.7c-0.3,0.4-0.8,0.6-1.4,0.6h-1.9
				C566.2,115,565.8,114.8,565.5,114.4z"/>
		</g>
	</g>
</g>
</svg>
