<svg width="135" height="37" viewBox="0 0 275 86" fill="none" xmlns="http://www.w3.org/2000/svg">
<g clip-path="url(#clip0)">
<g filter="url(#filter0_d)">
<path d="M230.093 22.7289C235.305 22.7289 241.095 23.1252 245.004 25.6242C246.254 26.4235 247.245 27.414 248.044 28.6642C250.543 32.5728 250.939 38.3633 250.939 43.5748C250.939 48.7863 250.543 54.5768 248.044 58.4854C247.245 59.7355 246.254 60.7262 245.004 61.5254C241.095 64.0244 235.305 64.4207 230.093 64.4207C224.882 64.4207 219.091 64.0244 215.183 61.5254C213.933 60.7262 212.942 59.7355 212.143 58.4854C209.644 54.5768 209.247 48.7863 209.247 43.5748C209.247 38.3633 209.644 32.5728 212.143 28.6642C212.942 27.414 213.933 26.4235 215.183 25.6242C219.091 23.1252 224.882 22.7289 230.093 22.7289Z" fill="black"/>
</g>
<path d="M230.093 22.7289C235.305 22.7289 241.095 23.1252 245.004 25.6242C246.254 26.4235 247.245 27.414 248.044 28.6642C250.543 32.5728 250.939 38.3633 250.939 43.5748C250.939 48.7863 250.543 54.5768 248.044 58.4854C247.245 59.7355 246.254 60.7262 245.004 61.5254C241.095 64.0244 235.305 64.4207 230.093 64.4207C224.882 64.4207 219.091 64.0244 215.183 61.5254C213.933 60.7262 212.942 59.7355 212.143 58.4854C209.644 54.5768 209.247 48.7863 209.247 43.5748C209.247 38.3633 209.644 32.5728 212.143 28.6642C212.942 27.414 213.933 26.4235 215.183 25.6242C219.091 23.1252 224.882 22.7289 230.093 22.7289Z" fill="#2574FF"/>
<path opacity="0.2" fill-rule="evenodd" clip-rule="evenodd" d="M249.377 31.4099C249.99 33.0939 250.371 34.9593 250.603 36.8856L229.996 53.3465H229.149L229.116 51.2945L249.377 31.4099Z" fill="#272755"/>
<path fill-rule="evenodd" clip-rule="evenodd" d="M250.549 31.2954L246.868 27.6473C246.379 27.1587 245.565 27.1587 245.044 27.6473L229.312 43.9007L222.504 37.1909C222.016 36.7023 221.201 36.7023 220.68 37.1909L217.423 40.4155C216.934 40.9041 216.934 41.7184 217.423 42.207L228.302 52.9882C228.595 53.2814 228.986 53.3791 229.377 53.3465C229.768 53.3791 230.159 53.2813 230.452 52.9882L250.549 33.1194C251.037 32.5982 251.037 31.7839 250.549 31.2954Z" fill="white"/>
<path fill-rule="evenodd" clip-rule="evenodd" d="M230.452 52.9882L250.549 33.1193C251.037 32.6307 251.037 31.8165 250.549 31.3279L249.962 30.7742L229.344 51.0338L217.944 39.9269L217.456 40.4155C216.967 40.9041 216.967 41.7184 217.456 42.207L228.335 52.9882C228.628 53.2814 229.019 53.3791 229.409 53.3465C229.768 53.379 230.159 53.2813 230.452 52.9882Z" fill="#F5F5F5"/>
</g>
<path d="M188.951 57.6571C189.54 57.8714 190.146 57.8541 190.771 57.6052C191.381 57.3287 191.799 56.9104 192.024 56.3503C192.249 55.7903 192.231 55.2129 191.969 54.6183L180.005 29.5405C179.831 29.1948 179.591 28.8975 179.286 28.6486C179.17 28.5518 179.047 28.4619 178.916 28.3789H178.872C178.829 28.3512 178.778 28.3236 178.72 28.2959C178.72 28.2959 178.712 28.289 178.698 28.2752H178.676C178.662 28.2752 178.654 28.2683 178.654 28.2544C178.596 28.2406 178.531 28.2199 178.458 28.1922H178.436C178.219 28.1231 177.986 28.0885 177.739 28.0885C177.492 28.0885 177.26 28.1231 177.042 28.1922C177.013 28.1922 176.976 28.1991 176.933 28.213C176.933 28.2268 176.926 28.2337 176.911 28.2337H176.889C176.875 28.2475 176.86 28.2544 176.846 28.2544H176.824C176.814 28.2637 176.808 28.2698 176.804 28.2729L176.802 28.2752C176.773 28.2752 176.751 28.2821 176.737 28.2959C176.722 28.3098 176.708 28.3167 176.693 28.3167C176.693 28.3167 176.692 28.3174 176.691 28.319L176.671 28.3374C176.657 28.3374 176.642 28.3443 176.628 28.3582C176.599 28.372 176.562 28.3927 176.519 28.4204L176.388 28.5034H176.366L176.235 28.6278C175.901 28.8629 175.647 29.1671 175.473 29.5405L163.509 54.6183C163.247 55.2129 163.229 55.7903 163.454 56.3503C163.68 56.9104 164.097 57.3287 164.707 57.6052C165.318 57.8541 165.921 57.8714 166.516 57.6571C167.112 57.4427 167.555 57.0452 167.845 56.4644L177.739 35.7425L187.633 56.4644C187.923 57.0452 188.363 57.4427 188.951 57.6571Z" fill="black"/>
<path d="M179.754 56.455C180.397 56.455 180.944 56.2557 181.395 55.857C181.846 55.4583 182.071 54.9852 182.071 54.4378C182.071 53.8784 181.846 53.3994 181.395 53.0007C180.944 52.602 180.397 52.4026 179.754 52.4026H174.3C173.658 52.4026 173.108 52.602 172.65 53.0007C172.192 53.3994 171.963 53.8784 171.963 54.4378C171.963 54.9852 172.192 55.4583 172.65 55.857C173.108 56.2557 173.658 56.455 174.3 56.455H179.754Z" fill="black"/>
<path d="M119.699 57.8058C120.382 57.7782 120.951 57.5432 121.408 57.1008C121.866 56.6584 122.094 56.1192 122.094 55.4832C122.094 54.8472 121.866 54.3115 121.408 53.876C120.951 53.4405 120.382 53.209 119.699 53.1813V53.1398C117.726 53.1398 115.93 52.6801 114.311 51.7608C112.693 50.8414 111.405 49.6109 110.447 48.0694C109.489 46.5279 109.01 44.8239 109.01 42.9575C109.01 41.0773 109.489 39.3664 110.447 37.8249C111.405 36.2834 112.693 35.0564 114.311 34.144C115.93 33.2315 117.726 32.7753 119.699 32.7753C122.065 32.7753 124.177 33.4389 126.035 34.7661C126.485 35.1255 127.014 35.3053 127.624 35.3053C128.291 35.3053 128.868 35.0772 129.355 34.6209C129.841 34.1647 130.084 33.6117 130.084 32.9619C130.084 32.1462 129.714 31.4964 128.974 31.0125C127.667 30.0862 126.227 29.3673 124.652 28.8558C123.077 28.3443 121.427 28.0885 119.699 28.0885C116.826 28.0885 114.206 28.759 111.84 30.1001C109.475 31.4411 107.591 33.2349 106.191 35.4815C104.79 37.7281 104.09 40.2201 104.09 42.9575C104.09 45.6949 104.79 48.1869 106.191 50.4335C107.591 52.6801 109.475 54.4705 111.84 55.8046C114.206 57.1388 116.826 57.8058 119.699 57.8058Z" fill="black"/>
<path d="M127.787 57.8058C128.416 57.8058 128.956 57.5745 129.407 57.1119C129.858 56.6492 130.084 56.0884 130.084 55.4294V42.622C130.084 41.9631 129.858 41.4023 129.407 40.9396C128.956 40.4769 128.409 40.2456 127.767 40.2456H122.292C121.65 40.2456 121.103 40.4769 120.652 40.9396C120.201 41.4023 119.975 41.9631 119.975 42.622C119.975 43.281 120.201 43.8418 120.652 44.3044C121.103 44.7671 121.65 44.9984 122.292 44.9984H125.47V55.4294C125.47 56.0884 125.696 56.6492 126.147 57.1119C126.598 57.5745 127.145 57.8058 127.787 57.8058Z" fill="black"/>
<path d="M96.1572 57.8058C96.7476 57.8058 97.2547 57.579 97.6783 57.1253C98.1019 56.6716 98.3137 56.1285 98.3137 55.4961V30.3982C98.3137 29.7521 98.1019 29.2056 97.6783 28.7587C97.2547 28.3119 96.7476 28.0885 96.1572 28.0885C95.5539 28.0885 95.0404 28.3119 94.6168 28.7587C94.1932 29.2056 93.9814 29.7521 93.9814 30.3982V55.4961C93.9814 56.1285 94.1932 56.6716 94.6168 57.1253C95.0404 57.579 95.5539 57.8058 96.1572 57.8058Z" fill="black"/>
<path d="M73.0515 57.8058C73.642 57.8058 74.149 57.579 74.5726 57.1253C74.9962 56.6716 75.208 56.1285 75.208 55.4961V30.3982C75.208 29.7521 74.9962 29.2056 74.5726 28.7587C74.149 28.3119 73.642 28.0885 73.0515 28.0885C72.4482 28.0885 71.9347 28.3119 71.5111 28.7587C71.0875 29.2056 70.8757 29.7521 70.8757 30.3982V55.4961C70.8757 56.1285 71.0875 56.6716 71.5111 57.1253C71.9347 57.579 72.4482 57.8058 73.0515 57.8058Z" fill="black"/>
<path d="M97.1335 56.2352C97.5858 55.8802 97.7829 55.3621 97.7247 54.6808C97.6666 53.9996 97.3708 53.3617 96.8375 52.7671L75.6707 29.1715C75.1257 28.564 74.5026 28.1775 73.8012 28.0121C73.0999 27.8468 72.5231 27.9416 72.0707 28.2966C71.6086 28.6593 71.4037 29.1781 71.456 29.8529C71.5083 30.5277 71.807 31.1688 72.352 31.7763L93.5187 55.3719C94.0521 55.9665 94.6724 56.3497 95.3795 56.5216C96.0866 56.6934 96.6713 56.598 97.1335 56.2352Z" fill="black"/>
<path d="M156.477 32.1409C157.164 32.1409 157.751 31.944 158.237 31.5503C158.723 31.1565 158.966 30.681 158.966 30.1238C158.966 29.5665 158.723 29.088 158.237 28.6882C157.751 28.2884 157.164 28.0885 156.477 28.0885H139.793C139.106 28.0885 138.519 28.2884 138.033 28.6882C137.547 29.088 137.304 29.5665 137.304 30.1238C137.304 30.681 137.547 31.1565 138.033 31.5503C138.519 31.944 139.106 32.1409 139.793 32.1409H156.477Z" fill="black"/>
<path d="M156.477 57.8058C157.164 57.8058 157.751 57.5775 158.237 57.1207C158.723 56.664 158.966 56.1124 158.966 55.4659C158.966 54.8054 158.723 54.2467 158.237 53.79C157.751 53.3332 157.164 53.1048 156.477 53.1048H142.395V45.0309H145.803C146.506 45.0309 147.104 44.7955 147.597 44.3247C148.09 43.8539 148.337 43.2953 148.337 42.6488C148.337 41.9883 148.09 41.4226 147.597 40.9518C147.104 40.481 146.506 40.2456 145.803 40.2456H139.838C139.136 40.2456 138.538 40.481 138.044 40.9518C137.551 41.4226 137.304 41.9883 137.304 42.6488V55.4659C137.304 56.1124 137.547 56.664 138.033 57.1207C138.519 57.5775 139.106 57.8058 139.793 57.8058H156.477Z" fill="black"/>
<path d="M18.5544 57.8058C19.2627 57.8058 19.8655 57.5774 20.3628 57.1205C20.8601 56.6637 21.1087 56.1168 21.1087 55.48V45.2834L27.9806 45.2419C29.774 45.2419 31.296 44.9719 32.5468 44.432C33.7976 43.8921 34.8036 43.1929 35.5646 42.3346C36.3256 41.4762 36.8719 40.5486 37.2035 39.5518C37.535 38.555 37.6857 37.5928 37.6556 36.6652C37.7158 35.1838 37.3165 33.6955 36.4575 32.2003C36.4274 32.1726 36.4048 32.138 36.3897 32.0965C36.3445 32.055 36.3068 32.0204 36.2767 31.9927C35.8095 31.2727 35.2067 30.629 34.4683 30.0614C33.8203 29.4383 33.0555 28.9572 32.1739 28.6181C31.2923 28.2789 30.1356 28.1093 28.704 28.1093C28.4629 28.0954 28.2218 28.0885 27.9806 28.0885V28.1093H25.4263L21.0635 28.0885H18.5544C17.8461 28.0885 17.2433 28.3169 16.746 28.7738C16.2487 29.2307 16 29.7775 16 30.4144C16 31.0651 16.2524 31.6292 16.7573 32.1069C17.2621 32.5845 17.8687 32.8233 18.577 32.8233L21.4478 32.8026H27.9806C29.2314 32.8026 30.2487 33.1937 31.0323 33.9759C31.8159 34.7581 32.2078 35.6684 32.2078 36.7067H32.2304C32.2002 37.7728 31.7971 38.6865 31.021 39.448C30.2449 40.2094 29.239 40.5901 28.0032 40.5901C27.5361 40.5901 26.6695 40.5867 25.4037 40.5798C24.1378 40.5728 23.0452 40.5694 22.1259 40.5694H21.4704L18.5996 40.5486C17.8611 40.5486 17.2357 40.8117 16.7234 41.3377C16.2562 41.7808 16.0226 42.3138 16.0226 42.9368V55.48C16.0226 56.1168 16.2713 56.6637 16.7686 57.1205C17.2659 57.5774 17.8611 57.8058 18.5544 57.8058Z" fill="black"/>
<path d="M63.3145 57.6571C63.9029 57.8714 64.5094 57.8541 65.1341 57.6052C65.7443 57.3287 66.162 56.9104 66.3872 56.3503C66.6124 55.7903 66.5942 55.2129 66.3327 54.6183L54.3689 29.5405C54.1945 29.1948 53.9548 28.8975 53.6497 28.6486C53.5335 28.5518 53.41 28.4619 53.2793 28.3789H53.2357C53.1921 28.3512 53.1412 28.3236 53.0831 28.2959C53.0831 28.2959 53.0829 28.2957 53.0825 28.2954L53.0613 28.2752H53.0395C53.025 28.2752 53.0178 28.2683 53.0178 28.2544C52.9596 28.2406 52.8943 28.2199 52.8216 28.1922H52.7998C52.5819 28.1231 52.3495 28.0885 52.1025 28.0885C51.8555 28.0885 51.6231 28.1231 51.4051 28.1922C51.3761 28.1922 51.3398 28.1991 51.2962 28.213C51.2962 28.2268 51.2889 28.2337 51.2744 28.2337H51.2526C51.2381 28.2475 51.2235 28.2544 51.209 28.2544H51.1872C51.1727 28.2683 51.1654 28.2752 51.1654 28.2752C51.1364 28.2752 51.1146 28.2821 51.1001 28.2959C51.0855 28.3098 51.071 28.3167 51.0565 28.3167C51.0565 28.3167 51.0492 28.3236 51.0347 28.3374C51.0201 28.3374 51.0056 28.3443 50.9911 28.3582C50.962 28.372 50.9257 28.3927 50.8821 28.4204L50.7514 28.5034H50.7296L50.5988 28.6278C50.2647 28.8629 50.0105 29.1671 49.8361 29.5405L37.8723 54.6183C37.6108 55.2129 37.5926 55.7903 37.8178 56.3503C38.043 56.9104 38.4607 57.3287 39.0708 57.6052C39.681 57.8541 40.2839 57.8714 40.8796 57.6571C41.4752 57.4427 41.9183 57.0452 42.2089 56.4644L52.1025 35.7425L61.9961 56.4644C62.2867 57.0452 62.7261 57.4427 63.3145 57.6571Z" fill="black"/>
<path d="M54.1178 57.8058C54.7603 57.8058 55.3071 57.6064 55.7582 57.2077C56.2093 56.8091 56.4348 56.336 56.4348 55.7885C56.4348 55.2292 56.2093 54.7501 55.7582 54.3515C55.3071 53.9528 54.7603 53.7534 54.1178 53.7534H48.6636C48.0211 53.7534 47.4709 53.9528 47.013 54.3515C46.5551 54.7501 46.3261 55.2292 46.3261 55.7885C46.3261 56.336 46.5551 56.8091 47.013 57.2077C47.4709 57.6064 48.0211 57.8058 48.6636 57.8058H54.1178Z" fill="black"/>
<defs>
<filter id="filter0_d" x="195.247" y="15.7289" width="69.6917" height="69.6917" filterUnits="userSpaceOnUse" color-interpolation-filters="sRGB">
<feFlood flood-opacity="0" result="BackgroundImageFix"/>
<feColorMatrix in="SourceAlpha" type="matrix" values="0 0 0 0 0 0 0 0 0 0 0 0 0 0 0 0 0 0 127 0"/>
<feOffset dy="7"/>
<feGaussianBlur stdDeviation="7"/>
<feColorMatrix type="matrix" values="0 0 0 0 0.145098 0 0 0 0 0.454902 0 0 0 0 1 0 0 0 0.3 0"/>
<feBlend mode="normal" in2="BackgroundImageFix" result="effect1_dropShadow"/>
<feBlend mode="normal" in="SourceGraphic" in2="effect1_dropShadow" result="shape"/>
</filter>
<clipPath id="clip0">
<rect width="57" height="57" fill="white" transform="translate(201.789 19)"/>
</clipPath>
</defs>
</svg>
