<?xml version="1.0" encoding="utf-8"?>
<!-- Generator: Adobe Illustrator 25.4.1, SVG Export Plug-In . SVG Version: 6.00 Build 0)  -->
<svg version="1.1" id="Layer_1" xmlns="http://www.w3.org/2000/svg" xmlns:xlink="http://www.w3.org/1999/xlink" x="0px" y="0px"
	 viewBox="0 0 739 238" style="enable-background:new 0 0 739 238;" xml:space="preserve">
<g id="layer1" transform="translate(0,-260.773)">
	<g id="g1133" transform="matrix(0.35277777,0,0,0.35277777,111.58742,140.59444)">
	</g>
</g>
<g>
	<g>
		<g>
			<path d="M700.5,109.5l-22.1-35.6c-4-6.4-6.2-10.5-8.2-15.2H670c0.5,7.1,1,20.3,1,31.7v19.2h-13.2V39.2h15.4L694,72.5
				c3.7,5.7,6.5,11,8.5,15.4h0.2c-0.5-7.7-1-20.1-1-31.7v-17h13.2v70.3H700.5z"/>
			<polygon points="596.7,109.5 596.7,39.2 639.1,39.2 639.1,50.6 610.2,50.6 610.2,68 636.8,68 636.8,78.8 610.2,78.8 610.2,97.8 
				639.4,97.8 639.4,109.5 			"/>
			<path d="M575.8,106.2c-7,2.8-15.7,4.4-24.1,4.4c-23.2,0-35.6-13.7-35.6-34.7c0-22.3,13.7-37.7,39.1-37.7c5.9,0,12.5,0.9,17.7,2.4
				v13.2c-5.7-2.4-12.5-3.5-18.6-3.5c-16.7,0-23.6,11-23.6,24.2c0,14.8,7.8,23.9,22.4,23.9c3.3,0,6.3-0.4,9-1.2V72.6h13.6
				L575.8,106.2L575.8,106.2z"/>
			<path d="M493.4,109.5l-4.8-15h-26.5l-4.9,15h-13.7l23.6-70.3h17.6l23.7,70.3H493.4z M478.3,61.8c-1.1-3.6-2.1-7.2-2.8-10.5h-0.2
				c-0.7,3.3-1.7,7-2.7,10.4l-7.3,22.1h20.4L478.3,61.8z"/>
			<path d="M422.9,109.5h-16.8l-10.8-38.4c-0.9-3.7-1.8-8.5-2.3-12.8h-0.2c-0.6,4.5-1.3,9.1-2.2,12.8l-10.5,38.4h-16.9l-17.6-70.3
				h14.5l9.4,38.4c1.4,6.6,2.3,12.2,3,17.5h0.2c0.7-5.3,1.8-11.1,3.3-17.3l10.6-38.6h13.6l11,39c1.5,5.2,2.8,11.2,3.7,16.9h0.2
				c0.7-5.4,1.6-11.1,2.7-16.7l9.3-39.3h13.4L422.9,109.5z"/>
			<path d="M331.5,51.3c-3.9-1.1-8.9-2-13-2c-7.7,0-11.7,3.1-11.7,8.1c0,12.8,30.6,8.3,30.6,31.4c0,12.6-9.6,21.8-26.8,21.8
				c-5.8,0-11.8-0.7-16.4-2V95.8c4.6,1.8,11.3,3.1,16.9,3.1c6.9,0,11.8-2.6,11.8-8.7c0-13.5-30.2-8.5-30.2-31.4
				c0-12.2,9.8-20.6,26.6-20.6c3.9,0,8.5,0.5,12.2,1.2V51.3L331.5,51.3z"/>
			<polygon points="268,109.5 243.4,75.8 243.4,109.5 229.8,109.5 229.8,39.2 243.4,39.2 243.4,71.1 267.2,39.2 283.2,39.2 
				257.3,72.8 284.9,109.5 			"/>
			<polygon points="177.5,109.5 177.5,39.2 191.1,39.2 191.1,97.7 216.8,97.7 216.8,109.5 			"/>
			<path d="M127.6,110.7c-21.2,0-32.4-12.9-32.4-35c0-24.4,15.9-37.6,34.5-37.6c21.2,0,32.4,12.9,32.4,35
				C162.2,97.4,146.3,110.7,127.6,110.7z M128.7,50.3c-11.1,0-18.9,8.3-18.9,23.7c0,15.1,6.3,24.5,18.9,24.5c11.1,0,19-8.3,19-23.8
				C147.7,59.6,141.4,50.3,128.7,50.3z"/>
			<path d="M65.5,109.5H47.9L24.2,39.2h15l13.6,42.1c1.4,4.7,3,10.7,4.2,15.6h0.2c1.1-4.8,2.7-10.7,4.3-15.8l13.7-41.9h14
				L65.5,109.5z"/>
		</g>
		<g>
			<path d="M291.4,197.8c-3.7,1.4-8.2,2.1-12.2,2.1c-11.5,0-18.3-7-18.3-18.2c0-11.4,6.8-19.7,19.9-19.7c3.2,0,6.6,0.5,9.4,1.3v4.9
				c-3.1-1.3-6.7-1.9-9.9-1.9c-10,0-14,7-14,14.7c0,9.2,5.1,14.6,13.7,14.6c2.5,0,4.5-0.4,6.5-1v-14h5L291.4,197.8L291.4,197.8z"/>
			<g>
				<path d="M352.1,180.9c0-3.4,0.5-6.4,1.5-8.7c1-2.4,2.3-4.3,3.8-5.8s3.3-2.5,5.2-3.2c1.9-0.7,3.8-1,5.6-1c1.8,0,3.7,0.3,5.6,0.8
					c1.9,0.6,3.6,1.5,5.2,2.9c1.5,1.4,2.8,3.3,3.8,5.7s1.5,5.5,1.5,9.2c0,3.5-0.5,6.4-1.5,8.8c-1,2.4-2.3,4.3-3.8,5.8
					s-3.3,2.6-5.2,3.2c-1.9,0.7-3.8,1-5.6,1c-1.8,0-3.7-0.3-5.6-1c-1.9-0.6-3.6-1.7-5.2-3.1c-1.5-1.5-2.8-3.4-3.8-5.8
					C352.6,187.5,352.1,184.5,352.1,180.9z M379.6,181.2c0-4.8-1-8.4-3.1-10.9c-2-2.5-4.8-3.7-8.2-3.7c-1.7,0-3.3,0.3-4.7,0.9
					c-1.4,0.6-2.6,1.5-3.7,2.6c-1,1.2-1.8,2.6-2.4,4.4c-0.6,1.8-0.9,3.8-0.9,6.2c0,4.8,1,8.5,3.1,11c2,2.6,4.8,3.8,8.2,3.8
					c1.7,0,3.3-0.3,4.7-0.9c1.4-0.6,2.7-1.5,3.7-2.7s1.8-2.7,2.4-4.5C379.3,185.7,379.6,183.6,379.6,181.2z"/>
				<path d="M408.3,162.8v22.7c0,2,0.3,3.7,0.9,5s1.4,2.3,2.3,3.1c1,0.7,2,1.3,3.3,1.5c1.2,0.3,2.5,0.4,3.7,0.4
					c1.3,0,2.5-0.1,3.7-0.4c1.2-0.3,2.3-0.8,3.2-1.5c1-0.7,1.7-1.8,2.3-3.1c0.6-1.3,0.9-3,0.9-5v-22.7h4.5v23.8c0,1.8-0.3,3.6-1,5.2
					c-0.7,1.6-1.7,3-3,4.2s-2.8,2.1-4.6,2.8c-1.8,0.7-3.8,1-6,1c-4.7,0-8.4-1.1-10.9-3.4c-2.5-2.3-3.8-5.5-3.8-9.7v-23.8h4.5V162.8z
					"/>
				<path d="M456.2,162.8h8.4c4.6,0,8,0.8,10.3,2.5c2.2,1.6,3.3,4.4,3.3,8.3c0,2.1-0.4,3.9-1.2,5.3c-0.8,1.4-1.8,2.6-3.1,3.4
					c-1.2,0.9-2.5,1.5-4,1.9c-1.4,0.4-2.7,0.6-3.9,0.6h-5.3v14.4h-4.5L456.2,162.8L456.2,162.8z M460.8,180.7h4.9
					c1.2,0,2.3-0.1,3.3-0.3s1.8-0.6,2.5-1.2c0.7-0.6,1.3-1.3,1.6-2.2c0.4-0.9,0.6-2.1,0.6-3.5s-0.2-2.6-0.6-3.4
					c-0.4-0.9-1-1.5-1.8-2s-1.8-0.8-3-0.9c-1.2-0.2-2.6-0.2-4.2-0.2h-3.3V180.7z"/>
			</g>
			<path d="M325,185.5c-0.2-0.3-0.5-0.6-0.8-1c-0.1-0.1-0.2-0.2-0.3-0.3l2.3-0.5c1.3-0.4,2.5-1,3.6-1.8c1-0.8,1.9-1.9,2.6-3.3
				c0.7-1.4,1.1-3.2,1.1-5.4c0-2-0.3-3.6-0.9-5c-0.6-1.3-1.5-2.4-2.6-3.2s-2.5-1.4-4.1-1.7s-3.4-0.5-5.4-0.5h-8v36.3h4.5l0.2-14.4
				h2.2l0,0l10.5,14.4h5.3L325,185.5z M317.5,166.8h3c1.3,0,2.5,0.1,3.6,0.3s2,0.5,2.7,1s1.3,1.2,1.6,2.2c0.4,0.9,0.6,2.2,0.6,3.7
				c0,1-0.2,1.8-0.5,2.7c-0.3,0.8-0.7,1.5-1.3,2.1c-0.6,0.6-1.4,1.1-2.3,1.5c-1,0.4-2.1,0.5-3.5,0.5h-4.1L317.5,166.8z"/>
		</g>
	</g>
</g>
</svg>
